<mxfile host="app.diagrams.net" agent="Mozilla/5.0 (Macintosh; Intel Mac OS X 10_15_7) AppleWebKit/537.36 (KHTML, like Gecko) Chrome/131.0.0.0 Safari/537.36" version="26.0.3">
  <diagram name="Page-1" id="TFEmjfyxHEs475iUEj0Z">
    <mxGraphModel dx="1509" dy="1918" grid="1" gridSize="10" guides="1" tooltips="1" connect="1" arrows="1" fold="1" page="1" pageScale="1" pageWidth="827" pageHeight="1169" math="0" shadow="0">
      <root>
        <mxCell id="0" />
        <mxCell id="1" parent="0" />
        <mxCell id="LH5yYJ9O6cOlUZl3kjkf-1" value="AWS Cloud" style="points=[[0,0],[0.25,0],[0.5,0],[0.75,0],[1,0],[1,0.25],[1,0.5],[1,0.75],[1,1],[0.75,1],[0.5,1],[0.25,1],[0,1],[0,0.75],[0,0.5],[0,0.25]];outlineConnect=0;gradientColor=none;html=1;whiteSpace=wrap;fontSize=12;fontStyle=0;container=1;pointerEvents=0;collapsible=0;recursiveResize=0;shape=mxgraph.aws4.group;grIcon=mxgraph.aws4.group_aws_cloud_alt;strokeColor=#232F3E;fillColor=none;verticalAlign=top;align=left;spacingLeft=30;fontColor=#232F3E;dashed=0;" vertex="1" parent="1">
          <mxGeometry x="20" y="-795" width="1050" height="645" as="geometry" />
        </mxCell>
        <mxCell id="LH5yYJ9O6cOlUZl3kjkf-2" value="" style="endArrow=classic;html=1;rounded=0;fillColor=#008a00;strokeColor=#005700;" edge="1" parent="LH5yYJ9O6cOlUZl3kjkf-1">
          <mxGeometry width="50" height="50" relative="1" as="geometry">
            <mxPoint x="906" y="50.139999999999986" as="sourcePoint" />
            <mxPoint x="986" y="50.139999999999986" as="targetPoint" />
          </mxGeometry>
        </mxCell>
        <mxCell id="LH5yYJ9O6cOlUZl3kjkf-3" value="" style="endArrow=classic;html=1;rounded=0;fillColor=#0050ef;strokeColor=#001DBC;" edge="1" parent="LH5yYJ9O6cOlUZl3kjkf-1">
          <mxGeometry width="50" height="50" relative="1" as="geometry">
            <mxPoint x="906" y="76.5" as="sourcePoint" />
            <mxPoint x="986" y="76.5" as="targetPoint" />
          </mxGeometry>
        </mxCell>
        <mxCell id="LH5yYJ9O6cOlUZl3kjkf-4" value="" style="endArrow=classic;html=1;rounded=0;fillColor=#e51400;strokeColor=#B20000;" edge="1" parent="LH5yYJ9O6cOlUZl3kjkf-1">
          <mxGeometry width="50" height="50" relative="1" as="geometry">
            <mxPoint x="906" y="102.5" as="sourcePoint" />
            <mxPoint x="986" y="102.5" as="targetPoint" />
          </mxGeometry>
        </mxCell>
        <mxCell id="LH5yYJ9O6cOlUZl3kjkf-5" value="知识库构造" style="text;html=1;align=center;verticalAlign=middle;resizable=0;points=[];autosize=1;" vertex="1" parent="LH5yYJ9O6cOlUZl3kjkf-1">
          <mxGeometry x="906" y="46.5" width="80" height="30" as="geometry" />
        </mxCell>
        <mxCell id="LH5yYJ9O6cOlUZl3kjkf-6" value="原始评论生成分类词" style="text;html=1;align=center;verticalAlign=middle;resizable=0;points=[];autosize=1;strokeColor=none;fillColor=none;" vertex="1" parent="LH5yYJ9O6cOlUZl3kjkf-1">
          <mxGeometry x="900" y="72.5" width="130" height="30" as="geometry" />
        </mxCell>
        <mxCell id="LH5yYJ9O6cOlUZl3kjkf-7" value="基于分类词再分析" style="text;html=1;align=center;verticalAlign=middle;resizable=0;points=[];autosize=1;strokeColor=none;fillColor=none;" vertex="1" parent="LH5yYJ9O6cOlUZl3kjkf-1">
          <mxGeometry x="900" y="103.5" width="120" height="30" as="geometry" />
        </mxCell>
        <mxCell id="LH5yYJ9O6cOlUZl3kjkf-8" value="" style="endArrow=classic;html=1;rounded=0;dashed=1;" edge="1" parent="LH5yYJ9O6cOlUZl3kjkf-1">
          <mxGeometry width="50" height="50" relative="1" as="geometry">
            <mxPoint x="906" y="133.5" as="sourcePoint" />
            <mxPoint x="986" y="133.5" as="targetPoint" />
          </mxGeometry>
        </mxCell>
        <mxCell id="LH5yYJ9O6cOlUZl3kjkf-9" value="数据可视化分析" style="text;html=1;align=center;verticalAlign=middle;resizable=0;points=[];autosize=1;strokeColor=none;fillColor=none;" vertex="1" parent="LH5yYJ9O6cOlUZl3kjkf-1">
          <mxGeometry x="900" y="133.5" width="110" height="30" as="geometry" />
        </mxCell>
        <mxCell id="LH5yYJ9O6cOlUZl3kjkf-10" value="" style="sketch=0;points=[[0,0,0],[0.25,0,0],[0.5,0,0],[0.75,0,0],[1,0,0],[0,1,0],[0.25,1,0],[0.5,1,0],[0.75,1,0],[1,1,0],[0,0.25,0],[0,0.5,0],[0,0.75,0],[1,0.25,0],[1,0.5,0],[1,0.75,0]];outlineConnect=0;fontColor=#232F3E;fillColor=#7AA116;strokeColor=#ffffff;dashed=0;verticalLabelPosition=bottom;verticalAlign=top;align=center;html=1;fontSize=12;fontStyle=0;aspect=fixed;shape=mxgraph.aws4.resourceIcon;resIcon=mxgraph.aws4.s3;" vertex="1" parent="1">
          <mxGeometry x="100" y="-398" width="78" height="78" as="geometry" />
        </mxCell>
        <mxCell id="LH5yYJ9O6cOlUZl3kjkf-11" value="" style="sketch=0;points=[[0,0,0],[0.25,0,0],[0.5,0,0],[0.75,0,0],[1,0,0],[0,1,0],[0.25,1,0],[0.5,1,0],[0.75,1,0],[1,1,0],[0,0.25,0],[0,0.5,0],[0,0.75,0],[1,0.25,0],[1,0.5,0],[1,0.75,0]];outlineConnect=0;fontColor=#232F3E;fillColor=#C925D1;strokeColor=#ffffff;dashed=0;verticalLabelPosition=bottom;verticalAlign=top;align=center;html=1;fontSize=12;fontStyle=0;aspect=fixed;shape=mxgraph.aws4.resourceIcon;resIcon=mxgraph.aws4.dynamodb;" vertex="1" parent="1">
          <mxGeometry x="400" y="-400" width="78" height="78" as="geometry" />
        </mxCell>
        <mxCell id="LH5yYJ9O6cOlUZl3kjkf-12" style="edgeStyle=orthogonalEdgeStyle;rounded=0;orthogonalLoop=1;jettySize=auto;html=1;exitX=0.5;exitY=0;exitDx=0;exitDy=0;exitPerimeter=0;fillColor=#0050ef;strokeColor=#001DBC;strokeWidth=2;" edge="1" parent="1" source="LH5yYJ9O6cOlUZl3kjkf-13" target="LH5yYJ9O6cOlUZl3kjkf-14">
          <mxGeometry relative="1" as="geometry">
            <Array as="points">
              <mxPoint x="299" y="-410" />
              <mxPoint x="300" y="-483" />
            </Array>
          </mxGeometry>
        </mxCell>
        <mxCell id="LH5yYJ9O6cOlUZl3kjkf-13" value="" style="sketch=0;points=[[0,0,0],[0.25,0,0],[0.5,0,0],[0.75,0,0],[1,0,0],[0,1,0],[0.25,1,0],[0.5,1,0],[0.75,1,0],[1,1,0],[0,0.25,0],[0,0.5,0],[0,0.75,0],[1,0.25,0],[1,0.5,0],[1,0.75,0]];outlineConnect=0;fontColor=#232F3E;fillColor=#ED7100;strokeColor=#ffffff;dashed=0;verticalLabelPosition=bottom;verticalAlign=top;align=center;html=1;fontSize=12;fontStyle=0;aspect=fixed;shape=mxgraph.aws4.resourceIcon;resIcon=mxgraph.aws4.lambda;" vertex="1" parent="1">
          <mxGeometry x="260" y="-398" width="78" height="78" as="geometry" />
        </mxCell>
        <mxCell id="LH5yYJ9O6cOlUZl3kjkf-14" value="" style="sketch=0;points=[[0,0,0],[0.25,0,0],[0.5,0,0],[0.75,0,0],[1,0,0],[0,1,0],[0.25,1,0],[0.5,1,0],[0.75,1,0],[1,1,0],[0,0.25,0],[0,0.5,0],[0,0.75,0],[1,0.25,0],[1,0.5,0],[1,0.75,0]];outlineConnect=0;fontColor=#232F3E;fillColor=#01A88D;strokeColor=#ffffff;dashed=0;verticalLabelPosition=bottom;verticalAlign=top;align=center;html=1;fontSize=12;fontStyle=0;aspect=fixed;shape=mxgraph.aws4.resourceIcon;resIcon=mxgraph.aws4.bedrock;" vertex="1" parent="1">
          <mxGeometry x="462" y="-522" width="78" height="78" as="geometry" />
        </mxCell>
        <mxCell id="LH5yYJ9O6cOlUZl3kjkf-15" style="edgeStyle=orthogonalEdgeStyle;rounded=0;orthogonalLoop=1;jettySize=auto;html=1;entryX=0;entryY=0.5;entryDx=0;entryDy=0;entryPerimeter=0;fillColor=#0050ef;strokeColor=#001DBC;strokeWidth=2;" edge="1" parent="1" target="LH5yYJ9O6cOlUZl3kjkf-11">
          <mxGeometry relative="1" as="geometry">
            <mxPoint x="340" y="-361" as="sourcePoint" />
          </mxGeometry>
        </mxCell>
        <mxCell id="LH5yYJ9O6cOlUZl3kjkf-16" value="" style="sketch=0;points=[[0,0,0],[0.25,0,0],[0.5,0,0],[0.75,0,0],[1,0,0],[0,1,0],[0.25,1,0],[0.5,1,0],[0.75,1,0],[1,1,0],[0,0.25,0],[0,0.5,0],[0,0.75,0],[1,0.25,0],[1,0.5,0],[1,0.75,0]];outlineConnect=0;fontColor=#232F3E;fillColor=#ED7100;strokeColor=#ffffff;dashed=0;verticalLabelPosition=bottom;verticalAlign=top;align=center;html=1;fontSize=12;fontStyle=0;aspect=fixed;shape=mxgraph.aws4.resourceIcon;resIcon=mxgraph.aws4.lambda;" vertex="1" parent="1">
          <mxGeometry x="640" y="-398" width="78" height="78" as="geometry" />
        </mxCell>
        <mxCell id="LH5yYJ9O6cOlUZl3kjkf-17" style="edgeStyle=orthogonalEdgeStyle;rounded=0;orthogonalLoop=1;jettySize=auto;html=1;entryX=1;entryY=0.5;entryDx=0;entryDy=0;entryPerimeter=0;exitX=0;exitY=0.5;exitDx=0;exitDy=0;exitPerimeter=0;strokeWidth=2;" edge="1" parent="1" source="LH5yYJ9O6cOlUZl3kjkf-16" target="LH5yYJ9O6cOlUZl3kjkf-11">
          <mxGeometry relative="1" as="geometry">
            <mxPoint x="630" y="-291" as="sourcePoint" />
            <mxPoint x="806" y="-520" as="targetPoint" />
            <Array as="points">
              <mxPoint x="640" y="-361" />
            </Array>
          </mxGeometry>
        </mxCell>
        <mxCell id="LH5yYJ9O6cOlUZl3kjkf-18" value="" style="html=1;verticalLabelPosition=bottom;align=center;labelBackgroundColor=#ffffff;verticalAlign=top;strokeWidth=2;strokeColor=#0080F0;shadow=0;dashed=0;shape=mxgraph.ios7.icons.user;" vertex="1" parent="1">
          <mxGeometry x="728" y="-777" width="64" height="62" as="geometry" />
        </mxCell>
        <mxCell id="LH5yYJ9O6cOlUZl3kjkf-19" value="" style="sketch=0;points=[[0,0,0],[0.25,0,0],[0.5,0,0],[0.75,0,0],[1,0,0],[0,1,0],[0.25,1,0],[0.5,1,0],[0.75,1,0],[1,1,0],[0,0.25,0],[0,0.5,0],[0,0.75,0],[1,0.25,0],[1,0.5,0],[1,0.75,0]];outlineConnect=0;fontColor=#232F3E;fillColor=#ED7100;strokeColor=#ffffff;dashed=0;verticalLabelPosition=bottom;verticalAlign=top;align=center;html=1;fontSize=12;fontStyle=0;aspect=fixed;shape=mxgraph.aws4.resourceIcon;resIcon=mxgraph.aws4.lambda;" vertex="1" parent="1">
          <mxGeometry x="749" y="-392" width="78" height="78" as="geometry" />
        </mxCell>
        <mxCell id="LH5yYJ9O6cOlUZl3kjkf-20" style="edgeStyle=orthogonalEdgeStyle;rounded=0;orthogonalLoop=1;jettySize=auto;html=1;entryX=0.5;entryY=0;entryDx=0;entryDy=0;entryPerimeter=0;endArrow=classic;endFill=1;startArrow=none;startFill=0;fillColor=#fa6800;strokeColor=#C73500;strokeWidth=2;" edge="1" parent="1" source="LH5yYJ9O6cOlUZl3kjkf-19" target="LH5yYJ9O6cOlUZl3kjkf-11">
          <mxGeometry relative="1" as="geometry">
            <mxPoint x="779" y="-322" as="sourcePoint" />
            <Array as="points">
              <mxPoint x="779" y="-420" />
              <mxPoint x="439" y="-420" />
            </Array>
          </mxGeometry>
        </mxCell>
        <mxCell id="LH5yYJ9O6cOlUZl3kjkf-21" style="edgeStyle=orthogonalEdgeStyle;rounded=0;orthogonalLoop=1;jettySize=auto;html=1;entryX=0.5;entryY=1;entryDx=0;entryDy=0;entryPerimeter=0;fillColor=#fa6800;strokeColor=#C73500;startArrow=classic;startFill=1;endArrow=none;endFill=0;strokeWidth=2;" edge="1" parent="1" source="LH5yYJ9O6cOlUZl3kjkf-10" target="LH5yYJ9O6cOlUZl3kjkf-19">
          <mxGeometry relative="1" as="geometry">
            <mxPoint x="119" y="-310" as="sourcePoint" />
            <Array as="points">
              <mxPoint x="150" y="-290" />
              <mxPoint x="788" y="-290" />
            </Array>
          </mxGeometry>
        </mxCell>
        <mxCell id="LH5yYJ9O6cOlUZl3kjkf-22" value="" style="sketch=0;points=[[0,0,0],[0.25,0,0],[0.5,0,0],[0.75,0,0],[1,0,0],[0,1,0],[0.25,1,0],[0.5,1,0],[0.75,1,0],[1,1,0],[0,0.25,0],[0,0.5,0],[0,0.75,0],[1,0.25,0],[1,0.5,0],[1,0.75,0]];outlineConnect=0;fontColor=#232F3E;fillColor=#C925D1;strokeColor=#ffffff;dashed=0;verticalLabelPosition=bottom;verticalAlign=top;align=center;html=1;fontSize=12;fontStyle=0;aspect=fixed;shape=mxgraph.aws4.resourceIcon;resIcon=mxgraph.aws4.dynamodb;" vertex="1" parent="1">
          <mxGeometry x="910" y="-400" width="78" height="78" as="geometry" />
        </mxCell>
        <mxCell id="LH5yYJ9O6cOlUZl3kjkf-23" style="edgeStyle=orthogonalEdgeStyle;rounded=0;orthogonalLoop=1;jettySize=auto;html=1;entryX=0;entryY=0.5;entryDx=0;entryDy=0;entryPerimeter=0;fillColor=#fa6800;strokeColor=#C73500;strokeWidth=2;" edge="1" parent="1" target="LH5yYJ9O6cOlUZl3kjkf-22">
          <mxGeometry relative="1" as="geometry">
            <mxPoint x="827" y="-360" as="sourcePoint" />
            <Array as="points">
              <mxPoint x="827" y="-361" />
            </Array>
          </mxGeometry>
        </mxCell>
        <mxCell id="LH5yYJ9O6cOlUZl3kjkf-24" value="" style="sketch=0;outlineConnect=0;fontColor=#232F3E;gradientColor=none;fillColor=#8C4FFF;strokeColor=none;dashed=0;verticalLabelPosition=bottom;verticalAlign=top;align=center;html=1;fontSize=12;fontStyle=0;aspect=fixed;pointerEvents=1;shape=mxgraph.aws4.opensearch_observability;" vertex="1" parent="1">
          <mxGeometry x="280" y="-610" width="78" height="78" as="geometry" />
        </mxCell>
        <mxCell id="LH5yYJ9O6cOlUZl3kjkf-25" value="" style="sketch=0;points=[[0,0,0],[0.25,0,0],[0.5,0,0],[0.75,0,0],[1,0,0],[0,1,0],[0.25,1,0],[0.5,1,0],[0.75,1,0],[1,1,0],[0,0.25,0],[0,0.5,0],[0,0.75,0],[1,0.25,0],[1,0.5,0],[1,0.75,0]];outlineConnect=0;fontColor=#232F3E;fillColor=#7AA116;strokeColor=#ffffff;dashed=0;verticalLabelPosition=bottom;verticalAlign=top;align=center;html=1;fontSize=12;fontStyle=0;aspect=fixed;shape=mxgraph.aws4.resourceIcon;resIcon=mxgraph.aws4.s3;" vertex="1" parent="1">
          <mxGeometry x="100" y="-610" width="78" height="78" as="geometry" />
        </mxCell>
        <mxCell id="LH5yYJ9O6cOlUZl3kjkf-26" style="edgeStyle=orthogonalEdgeStyle;rounded=0;orthogonalLoop=1;jettySize=auto;html=1;entryX=0.5;entryY=0;entryDx=0;entryDy=0;entryPerimeter=0;fillColor=#008a00;strokeColor=#005700;strokeWidth=2;" edge="1" parent="1" source="LH5yYJ9O6cOlUZl3kjkf-24" target="LH5yYJ9O6cOlUZl3kjkf-14">
          <mxGeometry relative="1" as="geometry">
            <Array as="points">
              <mxPoint x="360" y="-571" />
              <mxPoint x="501" y="-570" />
            </Array>
          </mxGeometry>
        </mxCell>
        <mxCell id="LH5yYJ9O6cOlUZl3kjkf-27" style="edgeStyle=orthogonalEdgeStyle;rounded=0;orthogonalLoop=1;jettySize=auto;html=1;exitX=1;exitY=0.5;exitDx=0;exitDy=0;exitPerimeter=0;entryX=0.75;entryY=0;entryDx=0;entryDy=0;entryPerimeter=0;fillColor=#fa6800;strokeColor=#C73500;startArrow=classic;startFill=1;endArrow=none;endFill=0;strokeWidth=2;" edge="1" parent="1" source="LH5yYJ9O6cOlUZl3kjkf-14" target="LH5yYJ9O6cOlUZl3kjkf-19">
          <mxGeometry relative="1" as="geometry" />
        </mxCell>
        <mxCell id="LH5yYJ9O6cOlUZl3kjkf-28" value="" style="shape=image;verticalLabelPosition=bottom;labelBackgroundColor=default;verticalAlign=top;aspect=fixed;imageAspect=0;image=data:image/png,iVBORw0KGgoAAAANSUhEUgAAA7IAAADCCAYAAAB0Sv6oAAAAAXNSR0IArs4c6QAAAIRlWElmTU0AKgAAAAgABQESAAMAAAABAAEAAAEaAAUAAAABAAAASgEbAAUAAAABAAAAUgEoAAMAAAABAAIAAIdpAAQAAAABAAAAWgAAAAAAAACQAAAAAQAAAJAAAAABAAOgAQADAAAAAQABAACgAgAEAAAAAQAAA7KgAwAEAAAAAQAAAMIAAAAAf80I6QAAAAlwSFlzAAAWJQAAFiUBSVIk8AAAQABJREFUeAHtnQWYFEfaxwtYdIFlkcV1cScQiIe4Es9FLxe3S3K5hLuLK0SJfnG5QIi7XRJiEFdCILi7LrKwuH3vv3ZrprrGZ2d3p3f+7/MM09NdXV396+2m33pNKQoJkAAJkAAJkAAJkAAJkAAJkAAJkAAJkAAJkAAJkAAJkAAJkAAJkAAJkAAJkAAJkAAJkAAJkAAJkAAJkAAJkAAJqCp+YrB79+7Bfhovx0oCJEACJEACJEACJEACJEACJFB6AlWqVBln9+I3RXa3PXgukwAJkAAJkAAJkAAJkAAJkAAJZASB20WZvc2caZZZ8NP3xDmFfhoux0oCJJBhBPrk5+gz5rMqwy48T5cEfEaAzyqfXTAOlwQylIB5Vrmn70tFdugTk93z4G8SIAESSBsCIy7vqfDQHT1mkaIymzaXhQMhARJwCPBZ5QDhTxIggbQkcM4RbdRfD28dMraqIWu4ggRIgARIgARIgARIgARIgARIgATSmAAV2TS+OBwaCZAACZAACZAACZAACZAACZBAKAEqsqFMuIYESIAESIAESIAESIAESIAESCCNCVCRTeOLw6GRAAmQAAmQAAmQAAmQAAmQAAmEEqAiG8qEa0iABEiABEiABEiABEiABEiABNKYABXZNL44HBoJkAAJkAAJkAAJkAAJkAAJkEAoASqyoUy4hgRIgARIgARIgARIgARIgARIII0JUJFN44vDoZEACZAACZAACZAACZAACZAACYQSoCIbyoRrSIAESIAESIAESIAESIAESIAE0pgAFdk0vjjxDi2rWhVVt3a1eJuzHQmQAAmQAAmQAAmQAAmQAAn4mgAVWbl8jerXUL3z66u8BjVUlSqxryfaZtdKD8WxZvWqaviF3dXoGweo3h3qxx58gi1q1aiqhp7WUR3cr3GCe7I5CZBAeRPo2qauem/YIHX+0W1V1TieZeU9vrI8Hp9VZUmXfZMACZAACZBA+hHISr8hlf+Irjypg9q3VyN94O07dqmlBVvUsx/NVz9PWxsymKa5NdX9l/ZUW7fvUl+MX6ne/26ZWrBic0i78liBF7dhF3RXfTrm6MPdc0kPNeK1WeqrCQUpOXy92llq2EXdVfe29dQRA5uqBnWrq3e+XZaSvhPtZK/uuapo8w61ev12tXnrTrVz5+6QLqpnwTKdpRrl1FA7ZPvMRUWqU6u6au2GbfKR/bbtVLtDdwvpp3bNanpyA1bu6QuLQrZzBQmkI4F2zeqo4XK/Zss9cMYhrfR9O/ylGfpvPx3Hm8ox8VnFZ1Uq/57YFwmQAAmQgD8IUJGV6wSl1Ej1rKqqrbwQRrLMHrt3M1VVTB1Qdobs01x/Pvt1pbpfFMjSSDXp87Zzu6pdomnd88osrazF6u/4fZsHlFi0xdivO6uzatqwlnr1y8Wxdo+5/aZzuuiXYdPwshM6qFpy3q98Ufq+TZ/xfMMCfqco7InIbuH44phF6m9Htklkt5C2F90/Qc1fvilkPVeQQLoRuPS49qp+neqBYWGC66lr+qrho2eoSXPXB9aneqGOPBMO6d9Erd+4Xa0t2q7WyaTRxi07Yx6mmvgD1c+urifIcuQbIRJj5FmajPBZpRSfVcn85XAfEiABEiABPxOgIitXb8OmHZ5rOHbCKvXT1FBrLF60jhiY52mLH63zaoesS3TFNX/pqPbq0VDv9siVtdTNz09TK9ZujdrNO98sVa2a1FZHDmoaaFdFNHC4FTZtWFM9+vYctSuoowfaxLswb9lGtUfnBp7m5x3VVtWqUU399+MFen375nXUyQe00C+wa9Zv0wo4Jga2ySec8RPejpgEqF8nS9WTl+568g1LKizgRZvDv/xu2Oi9Pp4BRfiBMWwSyy2FBDKFwKhPF+hnUZ54jRhpKGET913WU438ZIF67aslZnVKvw/fM0/9/cQOKelzwYpNSXlB8FmVEvzshARIgARIgAR8RSAjFdlLhrTTVss/5xaqP8VSAXdiW36bsc7+GVjev3cjlVuvRuA3Fr6dVKDufmmmZ12iPwb3bazwMmikffNs9djVfdRtL0xTU+ZvMKtDvreL++wDb8xWMxcX6RdJWHWNHLNXM+1mO+zFGWZVwt9PfTBfFYoSCcXYFrgtwq35iffmqa5tit2O7e3JLH/+2yo1eV54q9E6sfQkKnAljsuPONGO2Z4E0pTANHGDv+yhP9T14pUxoEtuYJR4LuAe/nriarVs9ZbA+lQtFCZxf0Y69mqZDEtG+KxKhhr3IQESIAESIAF/E8hIRRZWxg4tshUU03CyKYJbHNyKbSko3Krue3WWgkJZGlm8arOCNRPWEyOIR4Ul5SFRVGeJonrtaZ3UOnHbW7Vuq7Ygb5F4T1vmLt2o40HtdQf2aaxmHxyM8axZvZrKrV9dNRRlvGG96urL31epd2PEvMJFedeu3erCY9vZXWvF21hlPRuS/LFSziuSbNnmnWiYLJMPI14PdeV+9Kre2lUR/cAiPHHOejm/pWqlWLbXIEZWLLStmtRSFw9pHzgU4m5xDW1BIi9YtRB3B94UEqhoAv065ahzjmij3XfXy+QSJnc2yt9uOJkkf/d98nN0qIHZjmfagX1Cn3cIk8DfeY48b/DMgdcJXJExgRWv6EmjeBtHaYfnTLKKLLrls4rPqih/XtxEAiRAAiRQCQlkpCLbUpSZ6BKqmOLFsLd8bHldXPVcJcveHu/y7CUb1eUPTVS3n99VdWldL7BbDYl5/c+ZndVsUWQ7StKiZOSCY9pF3C1SkirEBx/cT2LeNm3X7s3vf79MxwUby+zGLTvU9U9PScm5m8Ehvi6SIN7VlvrZWdoSbK/Dck2xEhtBrPEcUe5hNbblCMvyjfW/SEKvH6essZtwmQTSjkCbpnVUz/bJZyVHAqhozwL7hOuKu38iimyhTLDZMmPRBvXIW3PsVRGXn/hn38A2WHYTDYXgsyqAjwskQAIkQAIkkHEEMk6RhaUNlkkjyGg7VrL8niRxnpEErnlXnhwaA4Y4zEP2aBJpN50wCslMYP2EtRVufaM/WxS2PSwR1zw2WQ09vaM6SJRIW5JVYu0+ElnuJS/MSBply0+i7I2UGLxTB7fUSizcGCFwrd4kiu26Iny2aeUWXFx3bbsvLD8ztJ+2epr12CdewUu9O75I++YK+5aNa2uLN16U9+wWdLnEPshMDSsUnLIR+4v2+BtBgqeCwuTcHCONhetJoDIS2CGWVFtWy30za/FGe1XEZTwnkKQOstPpJ+JO1gY+q/issv4cuEgCJEACJJBhBDJOkUWdRVtqSB3WXk791RP2byFux411GZfxEi8Li2BbUZ5cQYKmRARKcyRFFv1sk5e6uyTeFu6uyIhs5Oepa9Sg7sWJoNCmOCvoDoVY2nACN2MIStGgPdxsIbBYNhDFGtYZyI6d4ZXHcG6+q8SN+uXPF5e47+nd9T9I0ITYu0Rlu3VslNJxjK6Jdhex/dWn5Kt9eoa6VJodEE+IjyvfTCxQd5Yivtjtj79JoDQEtpfcw3C/xfMBWYERXtC8US09AYO+lxRsVlsdN3z7mAinsAXPCbgWo8wUsh3jWYj+w5W2svdLp2U+q5Tisyqd/iI5FhIgARIggfIkkHGKbPd2Xve87FpZIbGlcCM2gvixFo1juSKb1tG/EeMajzz69lxdB/VEUag//GGZZB+eqxpLbVTEudmZeBET2k1qvNoCxfWax/9UbSST8h1SsgYvetc/43UDhgUS8XCuS6Dpx41TgyJvSu4k6vpn+oz2DTfgRGX5mtCkNc2k7JArNi93W7Tf8V6raH1wGwmkisDHP69Q309erePjjeGye7t66o7zugUUWYQoREruVl3u+Reu20MnuTNjQmzrPa/M1LH3WFdTFFlkEI+UPdzsl07ffFapwPVLp+vCsZAACZAACZBAeRDIOEW2Z3uv4hcLsmvFQHtYLKrJi2GiEi4pSgcpXwOL4Rtjl2jrqekTsZ2/Tl+rxs8szqDsurkeJSV3XCUWsWn3vDxL9evUQFxvO2kXaiiswy/srm58bmogpnWHjN/tzxwX39t3iFVG3pZNFmSMO1p7e9/yWP7uz9Xq9pHTQw714g39tYXK3hBJWbfbhFt2X5DDteE6EihPAm7c6gGSzA1JmowgudviIzdLCMBCsyrwPWSfZh4lFhv6d2mg8BwxNafh3r81vrm2QL8VvcBnlSpVgqyKvn48PgmQAAmQAAmUhkBGKbKwana2kibBerlQ6hYihhK1TY0g5hOer6hx6gqUS9SZ/fcZQXdUxFMig+8d53cLNEc9xNFjFqqbzukaWOda+ZAd99Zzu4rFt7Y6eI/GWglFKR0jv04PXwaopViIL5YSQrZgXKg9CwX0NunTjgNGkqphYp2FMhtvLCpcDI0iu9nJkGwftzyWYUG2pbe4gl8bxq27mdTONYJ4V4ibjOtDSVz1q7iL79OzoYKCjqzEUNKR0fWQ/sESSHDdpJBAOhNAbdj+koG9XbNg2MNZh7VWyIL+xfhVgaHXkWfbmYe2Dvw2C+9JRu83x5W+tmyWuCfb0jinpiSt84Zw2NvtZRMfi3XVqwWTtdltYi3zWcVnVay/EW4nARIgARKonARCNbXKeZ76rA6QcjtVkOayRBB7eseoGeoCqbF4utRGNXL/a7O0Zc8u04JtyNb7oJTDueVvQeUU678cv1LqNjbAYkB+F0uqrRxjg6vIXntaR63EYlvrvDoKrsIvfrZQvYaSNxG8baH83nlBNx3/iv0gK8TNFrVsTbKUm56fqu6X0j22q22fjjla0YayCwW+NHLRse3UAaL4IXlSoSR5wrerIMNNMUficXPqSmkP+f5G4mif/Wh+UoetI+7ftiCB1pFiSYomsERDXK9l1OXNlW1HDgzuj/I8b3+9xKPI4uWYQgLpTACTNKg1/bjUnDZx7xgvYvcxuQZXYwgStNmWW6x76oN58je/FIulFnfCr7MosaiDnaggG3lV0WVTGb7AZ1WiV4HtSYAESIAESMA/BLwagn/GndRIDxsQtLihA2SsDSfd2tZXfzmoZcgmxKpCQbJdehE/inqsI0RxtAUuwS0lEYstUISNQJ/u2NJrtYC78nlHtVWDJLPuPa/M0lmOTXt8t5a416Gi/ELpNYJETrePmq42SAIYWC7riKILeezdudoKa9rhG/Vzbzqni375LY2e1qFFHa0k24qyfZxwy9gnWTFKaSL7YxIB5YvCiauiwuLsrgu3H9eRQEURQFInuAcjYRw8CUyyJ0zUfPrLCnXygcHnFayciJ9FsjfEvJ58oDcjOyZpkOipr0xuGcG9ghrTjSS7OvIGYGIHtZfjkVyr/nU87SO1wSRjbt0aKXWV5bMqEm2uJwESIAESIAH/E8gYRRYWU7eMza8RFNlpC9aLm26hOleUyvySTJ+wun4lCqvtPozLD4U1S1zi4B5sBNmAJ84uFEXVmyUUyZqM4AX0qkcnqX+eGppVFwmpnr62r9RAnSsvqSu16yDaQYG2LcroC5lGEQMLi0wkxc0cE99792iorjixg3r0nbn26oSW128MKuTx7pjMPqZvlPNA/O/27bvVOrH+bt66U2dXNdvNN17gYR2CCzli5yKJWxoImakpJJDOBA6XSThYVuOVK0/Kj9gUmYrvu9Q78eY2hkfJmg3x3RcNxJKaKoFVNpXx6ck8d5LZx5w/n1WGBL8zhQBCkE47uKWeSDfnDI8QeGG5cmDfxlIBIviuhIl45AdxJ9bx3rVvr+JKDaaPL35bpZZKCUMKCZAACdgEUvcGYveahsvH7RssZ4PhzZZY1GgWBzwwN2wqtkggJhbWWFhKoQjaMkoSq7huxdMWbNCxmXVqevHaiiz6gKvxrS9MV0fsmacuO6G9toSYvmFRvPLkfKnTulrXaYX11lViTdvcejXMYlzfQ4TFCnGnfV3+A0lG1osyacsC+U8LpT9sgQXJLg+0YVPiyi8YIP4P+9747FRtdY7ldoh9cuRlGFZcWLDDyXZJdmULrhfqx1JIIF0JbNqa+P1TXueCyTZYiPE8WyP1sJGUKt5M5MimDAtwI5l8qiXlweYt25TSYfNZlVKc7IwEQgigfBc8yWyZOKcwrCJ7wn7NVU+pU2/L+98v15PT9jq8U/318Db2KrW0YAsVWQ8R/iABEgABaFr3y2cofqS7QJG79dZbZZiHJTzUx8XV9rNfVyq4mkHBgsUhklx9SkftlgdXX1gCUdsVL1yXi7Jpyw9SDmP6wiJ1zhHeB+5vJRY+4+Zr9rFdi806fI+RcSF2E7GvrZoEla8REquLF0R83pXELKcd3MreLeYyYmE3ouak1HptLgmiTPIm7HjBMW31MSfPWx+zH7fBekcpfV4SXf04ZY2nGZLQ3HNJj8C6ZBTZsw9rJS7e3nPeul3cgL16aOAYOD87eQyyS5uMrIFGsuDkptExvlRkbUJcTjcCeAakqyA+3k4ulfg4t6l5MhlWFsJnVVlQZZ8kQAIkQAIkkB4EvCbD9BhTmYwCFkh8ULolltiJUeAqBrloSDuP+zDizEZ+slC7D7sW2R8mFyt1yBZqS7SXUWQavfKRiTqRFMrnwNI7dkJBYHcoZCiVAYsj2i4TizGy7eKDuDm8sMH6ALc4LEOBtS2PiK+7Siy8RmYuKtL9mN+JfG9JIovxdqSBToHY2ZiT7Q5xgLYkW6LH7oPLJFCWBOBOb8sciXG98uGJ9qpSLWeJW379Erd8JFP7c274Ca6WTWqpc8RSAuvIGnnuuEnezCAQr4/7DJbWXTKh9MT783RtbEwGtpEYfzzDMLkV6bmAMAl4VcCzY9HKzTrm3/SdyDefVYnQYlsSIAESIAES8BeBjFFkw10WWPBQhmVQ99xwm/U6xGtBCTxxf2/ClLckGQqsCMMu7OZx+f1F4m4RHwKB0mlLNEUW7YrEcnrdM1PUgM652oKKOBG8sEKw77n3/K7OlOzKUFCRqRiK+QxRSFF25qB+TfTLJVx8t4iFZF3RbnXMXk0lXrSmWr52i5QZ2ixuexu1Nfp7UebvfnlmxJdQfcAo/0SyiEbZpcI2WUmq9RiQFbVJg2CZHqzENUbcoC3OT3sTl0mg3Am4YQmYSLMnqko7oO07d2r3PjxTokl3idM/eI8m0ZqE3TZSSpFhkg1uhZ2kBBpq2MYr7sRTvPuhHZ9VidBiWxIgARIgARLwFwFXkf2XDH9Eup6CZAjWTqWHXft9qYaIuMvBknQAFs6GjnXOdIxDwV12xZqt6u+SHMkWKISwxiIz6KBu3pjZ175aHGhaTxIw2QIraSxBDChqyaK+LGLOLn/oDx1zhv2geJ/iJHyBuzIswG5GZtSIPKBP45DzQzwoshz74QUPibQQ/wtL8yaxSBWJBWe1ZFI1pXEuPa69yssNKqX/984cBXUUFnVYc7ZJwickw7IF18RWZJH4CTF9iM+zxZ2EsLdxmQTKm4A70VIUx7OkLMaI52GiguR3JoESFGUosolIKpM/JXLcRNryWZUILbatTAQ2b92lc3kg/MrItIUbzKLnG4kV8f+4EYQ/IeGTK5jA/8kJV4IXB4UESIAEXAJeTcvdWol+d2qVrQ7tn6eTNcFdLZrgAYqap6iH+E+pyWjHlkLxgTUT1pDzjvLGxk4VJdF2yUMGTlvifflEQgQoYFDSULP2309N0TViUa8VcZ+I3TUyac56bYk1v803LLWwftiKekHhVnX7SH8osTiP32cW6g+WkbEV7t2ojTlZ3B7x4rhcrNK2Ijvuj4LACzP2gaBckS1QYnvIBIQRuEhCGkjZD1saJJhAy96XyySQagLus8SN/Uz18SL1F06pdOtjY1+7ZNaa9cHkcHiG2YJnkrs/Jq9sK2y4Y9p9pMMyn1XpcBU4hoogAGX0Dpkcj0de+nxRPM0U8oyYXCNx7cBGJEACGUvAq2lVYgyHiDvcSQd43YMjne7nUmrnSLHWhit38dQH83RmzT0650gdRq973GsSx2pLjsSa2RLLtRhta4oCO2TfZoHdeufn6Jq2iJGFFXW9ZFK2sxQ/8+F81a9TsB4kdkQSKiRfgeJuy1MSp5aKl0LEvyUqOK/SSM/29XSZo65t6il8YJl2z+V8yZwIV2KU4EENTWRTtVnh+K5FG8mu/nFKvlivG3mGlysWXQoJpAsB91myXrw1KkLcZxhyDmByzJX3hg3SJcGw3k5y55bFGj56pnITzvXqUF89+PdegS6TiXM1O/NZZUjwmwRIgARIgAQqH4GMUWTf/mapQgkeO6stLudKcXXLrlUt8NKFdSh1c+zeQWUS6yBvS1zsB5IqHjGp153ZuXhlyb8LVmzyZO41CpVphFnLSIlRTBt8HzkwT5KueJUoJHYy4o5/6erNUuu2jtmsv2GNhSDDry2pygxaR8pl2PLvMzrpshv2OleBRAKZ0oibsh9liVBmx7bcHONcM8QFYwLgl+lr9aGRfOv8o9t6hmHvM3tJkVZ+0WCS1AGmkEC6EMDfui0VZZGNt6yOPdaKXOazqiLp89gkQAIkQAIkULYESmcmK9uxpbT3Veu2qU9/XhHoE9a8R9+eo/5293j14Q/LA+uxMFNK7pxxx6/q+f/NV3AlhsDy8LRYPxFjeddF3T2Wvp2SeOXhN+foduYfWATtuLZ4ys8gwdDJB7Y0XehvxON+PbE4e3H1rCra0mgaIJMpYmrdpC8m5mSHuCHbsnVbaCyKvT3eZTcbM861TdM6ng+sora4v+1tsZbbSD1YWxFG/DLKKcUjsPa8/90ycVNaq2CVjyaYwGgiWVbRPlVKf7TjcRsJxEvALsuFfZDJlxKbAJ9VsRmxBQmQAAmQAAn4lYBX2/DrWcQ57lclEVM/qW8KhfY9UVaiWUjhQvfaV0t0nMYRe+ZJzOwClSWa5h3nd1OtpXyELa98sSjEPc6OEUNbJCyKJfv3bqTLTdjtUIbHJGayrY9og/IXFSFufdx4xoDSHsmKa42Fe6Ltrmj6hdIPF2Yke8oWqzHaIInTgZL06rLj23us7ph8gCv4ifs3V7bVBrV6oTSUJquzGQ+/SSAVBJBpu09Hb/jApLn0GIiHLZ9V8VBiGxIgARIgARLwJ4HktQsfni+ssudJCZtEBMmFZi+Zp2Mvbzi7i+op8Vu2wOL30mehCQwSdQWEK/LpUlrHFtR6/b6kJi3Wt2+ebW9WBXI+FSFfSAwxrMcoFwRlcYtYeo3l2oynpiiQ9cRFGgosrNg/TS2urWu2J/LtMkcirGucJFzob+iTkwPJnjApgM+btw8UZdZbBgltX5akE6Plun01YZW6/bxuWnnFesi+vRqph67opW5+flpIHG5xC/5LAuVHACVvMDFjBEnO8CyjxCbAZ1VsRmxBAiRAAiRAAn4lEHw78usZlMO4EROLONBeHbxWEWQhhuVOjHshYrvCYuNacWWOJsdJrVq4ttoy8tMF9k8dP2uvQMbPZGSA1HCEa2KsmpGR+rYzdEZqk6r1cA3cs2tonV/UzY0kmBRAySTXgo32cEt+/n8L1Otjl+jdEUd7xcMT1d0X91DdRGEwghIhIy7rqc67N7GJD7M/v0kgVQQGdPH+/duZ0VN1jMraD59VlfXK8rxIgARIgARIQCkqsjH+CoaIgnnRse2UW1cUCtFDb87WyaLCdTHQUb7cDLv2Pg3rVZdSPt4kRFPE0vvr9HWBZlDKBnX31qydMj98rbbAThEWjt6rmdpDMh0jRvirCcXxtxGaVvjqvx3ZxlPKI54BwRUb53ab1OKtAq22RJD8asRrsxXK9NgCN/Lrn5mi7r2kh+oiGZEhuL5vjCtWdu22XCaB8iSAiRw7IRmO/b3E66eLdG1TV50r96gr2eKFEY+cdlBLtU9P73Ottbj2+1H4rPLjVeOYSYAESIAE/EwgvrcNP59hkmNv0qCGuvYvnVR/sV66gvjKB9+Yrb6ZuFq7HENxMoKas92lTumhA7wWQ5NJ2LSzvy914jexbaTExhpBkqfrzurkqWeLLMhjxS02GWkq9Wnxonm9uEqfKwr0XS/NUNMXFmc6DtdfUBUMt7Xs1rVvXkcdLzV145XBfRurn6eu1ZbmH8QlG+V3jpIySrvkeqEc0QufLFAFheEt41Bm73ppphp1Q399uE2SSAuuyWeIu/fw0TNUtOsX7/jYjgQSJXDmoa08EznIYP6D1LlOF2mcU1OddVjrpIezV4+Gaq+k9w7dkc8qPqtC/yq4hgRIgARIoLISoCIrVxbJVGyBFe+wAXkKtWJdgQJ5lyg2iF3NE4Xwv//pp5ANeK3UdUS9wzaSCMq13qIPWFjDCY7huslOlNIvf5SUf4ESe/M5XUNq1v4kL7OIUYW4tRLd3+a4SHzUsnEtld8yGGvbvFEtnfnYtDHfdh9Z1RxAplEC34iTRWzrOuGE+OHGkh3YiGU0Nav095UndfAo72sluRVinP91eicdx+ppLD+uPClfPsVlh9Zu2K5qZBWPGxmj83JrqJv+2kUVStItjAOWLlwnfMyyXdoIMYlwacYxmSHWJc3f5UEAIQ0nOrWv3/t2aSD5W3mMwT1G1Ug3q9vQ+m0/SxBbn6jY92W4fe3++axiNutwfyNcRwIkQAIkUDkJUJGV61qjujcZEDLfvvLFYl1y529HtFEHSNZbCMrd3PrCNDVhVnHGUNSgRQzW3mJVcGNi9Q4l/0AxXRkmOUv1alW08mW3xTKssVD2UPcWHzcDMsbxX7EuGnEVZ5OF133nvFEUOYwTVmMjsxcXqZnysQXKs+2Sa78o2u0SWb77ku6qS+tgDKq9Lyzcrhzav0lITDLKJMFyeseo6dpSC2upW68W/dSU69msYfCaIotx346hlnX3mOF+vzhmkYJ1lkIC5UkAoQQo82UmY3DsTZJYDV4GFSmYBLJlo+QJmLN0o71KEsFV8STFw/1nxD4frEOc/xxJqGdLN/FosWtpR8t4zmdVkByfVUEWXCIBEiABEsgMAlRk5TrXrR1UenDZURcVgkRAd744Qw3Zp1Dqu7ZQ90hiJ9cF95G35qh+Em8aLjMu+kCG0WFiwQ0nvfLre7Llos3vM9fpUj5HDsxT54gSHU5wzCWrtgQ25VovilhpMibD+mmLm/UY297+ZqndRC/XchT7WBaRkA7CrJgprsuRFFn7XMyubt1MKO/vfbtMb4be+64sf/zTCq3ow6W4o1iZ7bq9pp/SfO+UOrxf/p6c+3Zpjst9M5sAwhrul0RjLRt7Y0UxwVXRkyquUjl/+SZ17ROTPRcMMf+v3zYwsA7eGPB6Qc1rt570sx/OD4nTP3VwC3XxkPaB/W2lNrCyZIHPqmIQfFa5fxn8TQIkQAIkkAkEqMjKVW5YL+jmioveUKwhtsASiE84QRInxGMevEcwJhYvFbByfjupQH304wptyQ23L6y5d0t86hXiEmte8EaNWaibGsvLVSfnK1uRfE1q4brKlZud11hwf5m2VpTwyDGm4yTGFrGjrjSQF1FbsmtVC7yI2usTWf5m0mo1RKzL4eQdcZd0BS/t30lSm+Nln4P2aCz8l6kNYv2xBXWA35SETPhgjL3zc7RCi5dtWJ7BtLaU3sFLNJRcWKiryT9YNr9hnJYtxd1iWf/GdxUpu7Qx4rWzx8FlEkglAXiBuErspDmFevImlcdJpi+4O9vSTEITXMmRe88W5BCAwgkl3H22mmeV3d61+u6ykxDYDWWZzyo+q5w/Cf4kARIgARLIIAJUZOVi4wULFj8jiHVNRKBILVixSayvW8VSulnNXbZR6qqGusuG6xNZgyfOWa+Gnt5RK1RTrUzEUGZhVb1N6pxuE6XtAUkw9bWTcRd9fi7KKGJ0jUxbUJzN+CdJfHTVo5N0VlBYbWFphjUT7nyT5JhQFMOJHb+K7VD68HKKuNNkBS/ihTLG+uIyDeUfbtkYJ8buuhaaY0CRxDk//t5ctUMmB6IJXI5/lLhhfCgk4GcCSCQ3XjwzTju4lcpvka2fTfe/NistTgn35IffF3tGYECrwiRPmydW2sse/ENPCqENnoXGkvyiTNS1bVYHq7WES1z16peLA94XaIS8BJGEz6pIZLieBEiABEiABCo/ASqyco1vHzm9VFcaL3f4JCtQ7K5/ZmrY3aGM3vjsVImx3Rox6dDMRRLnKp9wAmXRKLbhtodbN0usyXjhNII4uNIosegHCjQSNW2WSYJYSqk5rvneIsm0KCSQKQRwr4yVCS58UPMZFklMkqWDYByPvjM35lAiPQ9/m7FO4RNN4IKMial4hM+qeCixDQmQAAmQAAlUTgJUZH1wXWGdKU9BNuTRny1K+SFd1+CUH4AdkkAlIxBL6atkp5vw6fBZlTAy7kACJEACJEAClYaARA9SSIAESIAESIAESIAESIAESIAESMA/BKjI+udacaQkQAIkQAIkQAIkQAIkQAIkQAJCgIos/wxIgARIgARIgARIgARIgARIgAR8RYCKrK8uFwdLAiRAAiRAAiRAAiRAAiRAAiRARZZ/AyRAAiRAAiRAAiRAAiRAAiRAAr4iQEXWV5eLgyUBEiABEiABEiABEiABEiABEqAiy78BEiABEiABEiABEiABEiABEiABXxGoIqO9Xz5DS0b9L/keUbKcdl+7RdJuUBwQCZAACZAACZAACZAACZAACZBAWRO4vUqVKreZg9Aia0jwmwRIgARIgARIgARIgARIgARIwBcEqMj64jJxkCRAAiRAAiRAAiRAAiRAAiRAAoYAFVlDgt8kQAIkQAIkQAIkQAIkQAIkQAK+IEBF1heXiYMkARIgARIgARIgARIgARIgARIwBKjIGhL8JgESIAESIAESIAESIAESIAES8AWBLF+MsmSQkqUKWZYpJEACJEACJEACJEACJEACJEACGUyAFtkMvvg8dRIgARIgARIgARIgARIgARLwIwEqsn68ahwzCZAACZAACZAACZAACZAACWQwASqyGXzxeeokQAIkQAIkQAIkQAIkQAIk4EcCVGT9eNU4ZhIgARIgARIgARIgARIgARLIYAJUZDP44vPUSYAESIAESIAESIAESIAESMCPBKjI+vGqccwkQAIkQAIkQAIkQAIkQAIkkMEEqMhm8MXnqZMACZAACZAACZAACZAACZCAHwlQkfXjVeOYSYAESIAESIAESIAESIAESCCDCVCRzeCLz1MnARIgARIgARIgARIgARIgAT8SoCLrx6vGMZMACZAACZAACZAACZAACZBABhOgIpvBF5+nTgIkQAIkQAIkQAIkQAIkQAJ+JEBF1o9XjWMmARIgARIgARIgARIgARIggQwmQEU2gy8+T50ESIAESIAESIAESIAESIAE/EiAiqwfrxrHTAIkQAIkQAIkQAIkQAIkQAIZTICKbAZffJ46CZAACZAACZAACZAACZAACfiRABVZP141jpkESIAESIAESIAESIAESIAEMpgAFdkMvvg8dRIgARIgARIgARIgARIgARLwIwEqsn68ahwzCZAACZAACZAACZAACZAACWQwASqyGXzxeeokQAIkQAIkQAIkQAIkQAIk4EcCVGT9eNU4ZhIgARIgARIgARIgARIgARLIYAJUZDP44vPUSYAESIAESIAESIAESIAESMCPBKjI+vGqccwkQAIkQAIkQAIkQAIkQAIkkMEEqMhm8MXnqZMACZAACZAACZAACZAACZCAHwlQkfXjVeOYSYAESIAESIAESIAESIAESCCDCVCRzeCLz1MnARIgARIgARIgARIgARIgAT8SoCLrx6vGMZMACZAACZAACZAACZAACZBABhOgIpvBF5+nTgIkQAIkQAIkQAIkQAIkQAJ+JEBF1o9XjWMmARIgARIgARIgARIgARIggQwmQEU2gy8+T50ESIAESIAESIAESIAESIAE/EiAiqwfrxrHTAIkQAIkQAIkQAIkQAIkQAIZTICKbAZffJ46CZAACZAACZAACZAACZAACfiRABVZP141jpkESIAESIAESIAESIAESIAEMpgAFdkMvvg8dRIgARIgARIgARIgARIgARLwIwEqsn68ahwzCZAACZAACZAACZAACZAACWQwASqyGXzxeeokQAIkQAIkQAIkQAIkQAIk4EcCVGT9eNU4ZhIgARIgARIgARIgARIgARLIYAJUZDP44vPUSYAESIAESIAESIAESIAESMCPBKjI+vGqccwkQAIkQAIkQAIkQAIkQAIkkMEEqMhm8MXnqZMACZAACZAACZAACZAACZCAHwlQkfXjVeOYSYAESIAESIAESIAESIAESCCDCVCRzeCLz1MnARIgARIgARIgARIgARIgAT8SoCLrx6vGMZMACZAACZAACZAACZAACZBABhOgIpvBF5+nTgIkQAIkQAIkQAIkQAIkQAJ+JEBF1o9XjWMmARIgARIgARIgARIgARIggQwmQEU2gy8+T50ESIAESIAESIAESIAESIAE/EiAiqwfrxrHTAIkQAIkQAIkQAIkQAIkQAIZTICKbAZffJ46CZAACZAACZAACZAACZAACfiRABVZP141jpkESIAESIAESIAESIAESIAEMpgAFdkMvvg8dRIgARIgARIgARIgARIgARLwIwEqsn68ahwzCZAACZAACZAACZAACZAACWQwASqyGXzxeeokQAIkQAIkQAIkQAIkQAIk4EcCWX4cNMdMAqUhsHv37sGyPz4UEiABEiABEiABEiCBsicwrkqVKuPK/jA8QiYRoCKbSVeb52oI3CoLg80PfpMACZAACZAACZAACZQpgXFl2js7z0gCVGQz8rLzpEFg4pxCNWnOesIgARKoAAJ/Pby1PurozxZVwNF5SBIgAT8T6J1fX/XJz+H/4z64iOZa+WCoHKIPCVCR9eFF45BTQ2D0mEX6P8HU9MZeSIAE4iWAF1AosphMenHMwnh3YzsSIAES0ARGXN5Tf/P/8fT/gzDXKv1HyhH6kQCTPfnxqnHMJEACJEACJEACJEACJEACJJDBBKjIZvDF56mTAAmQAAmQAAmQAAmQAAmQgB8JUJH141XjmEmABEiABEiABEiABEiABEgggwlQkc3gi89TJwESIAESIAESIAESIAESIAE/EqAi68erxjGTAAmQAAmQAAmQAAmQAAmQQAYToCKbwRefp04CJEACJEACJEACJEACJEACfiRARdaPV41jJgESIAESIAESIAESIAESIIEMJkBFNoMvPk+dBEiABEiABEiABEiABEiABPxIgIqsH68ax0wCJEACJEACJEACJEACJEACGUyAimwGX3yeOgmQAAmQAAmQAAmQAAmQAAn4kUCWHwfNMZNAuhLIrlVNXXdmZzVzcZEa/dmiuIa5X69Gqm2z2mrFmq1qxdqtav6yTWrD5h1x7RtvI4zrqpPz1fzlm9S73y5VW7btCuxaPauK+uvhbVSRHHNpwWa1eNUW3S7QgAu+ItCwXnXVr1MDtWDFJrVo5Wa1dXvwWvvqRBIcbIO61dU9l/RQ6zdul3PfrBbK+U+Zt17Nlfspllx7WkdVq3pV/be/eNVmNW/Zxrj2i9VvvNsb59RQa9ZvU7t2R96jY8tstUDu3+07ozSKvDu3xEkAz8OG9WroZ3Gcu7AZCZAACZBABRGgIltB4HnYykcAL9J3X9RddWxVV+3Vo6GqVrWKGvnpwpgnesExbVWrJrUD7XbK2+y5d49Xy0WxTZUMPb2TgsIMOfmAFurd75aq179aonbIS3HbpnXUGYe08hyqsGi7uuKRiZ4x4AWvT36OGj9zndrNd2kPr3T68ZeDWqqTD2yph7RbLtSSgi3q5c8XqS/Gr0qnYaZ8LPWzs1R+i2zdLxR5yOatO9VxN/ykl6P9c9iAPH2/2m3ueXmm+vL3smc2sGuuuvW8rmqC3FfDRs/wTDKZ8fTqUF89+PdeasOmHXpMn/68Qs1ZutFsrrTfg7rnquya1dTS1Vv0Z/3G1E7wueDwN3Tn+d1Uvkwa3PTcNPXH7EK3CX+TAAmQAAmkEQEqsml0MTgUfxO4/IT2Wok1Z3HWYa3FwrJbvTgmumV205adZhf9vU0saBuddZ4GCf44Yb/mASUWu+aIwn3ukW1VO1Fgh780U1ti3S4LxDpUaL00Qkm/XV7wuretpybKy929r85Uq9Ztc3cL/D58zzyVIy+FsDCvlA+sTTvL0DBYU6xpOK9mDWvKp5a2xE2auz4wHrOA8+iTX1+tF4UAHygG+OxM0spVpYpSNWtUVXXkZTu7VpbKFWsorl+4Y5sxlPX3OpmEMFJFBohJknp1Kv+jfuNm730EBvA+iEc2ijdC/ezqgaYFhVvVlPmhfz+BBjEWoAgN7ttYjZKJLEwWRRKjxNbIqqoGdW+oRlzWU930/DRlX0OZD1NXnNhBd4HriPsZn//9uFw9/NacSF3r9el6H0YdtLXxlnO6qhpybxtZtW6ruu7pKWqheBqkWlo0qqXuuri7atm4eFLxzgu6qeufmaomi1WfQgIkQAIkkJ4EKv/bTXpy56gqIYHPfl2p9unZUNWsXi1wdnDZhaL07rfLAuvchU1bvVaGD75fpvdx2yXzu2/HHHXxkHYhu64WxXLsHwV6PcZnC6x4tzw/VVuzsL5D8zrqzgu6q7zcmrpZH+nzmaH91H2vzlI/Tllj7xpYxkv8nmJpqih5/n/zwyqTsD7fJC/HZSlwTT3vnt9jHgJKNT5rNmzT1zuclRtWfbTBpAAs9JvEwhhL1m4IKrJo+7tY+qL9/cXqzy/bw/0dvxSnez9c+W1F9rmPFni8ERJhAKvwfZf2UPXrVJd7J1vdNnKa2r4jvDJ7wv7NFZRYI13a1FMPX9lLXfv4ZIV7FHLM3s1UhxJLs2m3dftObaE0vyN9p+t9GGm87vpCcRNv0qD4uYNtmBQoKIw8gebun8jvrm3qBpRY7FerRjU1/MJuWnGetrAoka7YlgRIgARIoJwIUJEtJ9A8TOUn8NuMderGZ6eJ0tdN1RYLnZHLjm8vcXvFLoFmnf29eavXVDlpTmosAHADxliqWy/KOO5vM9aqu0bPDMThQjmC8grrHQQv9SvF2grl6cxDW6sh+zQL6aNu7Sz1z1PzIyqyuqMM/efxd+fGdebD5NpAcTGyZdtOtcsKksyqVtVjjfr8t5V68sC0j/SNWGdbUmndt/tNt+VtO3aJwrgr8LcKT4d440ldZvMlvjYZgVXPKLHYf2C3XDVMJoFu+e+0sLHKw8WV+PbzuilMDhmBRfBeUYSvefxP7cJ/7lFtzCb9DWvxzWK1nb2k8rsWI8TBVmRh4Y5nMscDLM4fX00o0Nfh6L2aBfaoI14Wwy7srv7+cHGYxdF7NVWH9m+ivUzwjMRkA56d0QTPVcStN5e/jabiLfL0B/PU1Pkbou3CbSRAAiRAAnESoCIbJyg2I4F4CEycU6hufWGauktiZaGIQPAic40kkxn7xypRVEJ7wQu4LalI9NRb3GeHiTUBVgVbxouyjdgvxOEawXsYxlWtpCksROcc0VqdInGWtkIebL9bzZGX6A/FtZHiJTBuwiqZKFjnXRnhl+ty6l4rdzdbyXW32b/ta4v1UHwyReDWbSZu4lViwcZOfobfrrs/1sUr1q2ld9mjcwN1t7iswk0VibcQh9mjXX3tPgxF7b7XZqlrTu2o+ncpjuvFTvAcwDNk9uKN2rJrH/vhN+eozTLp0U3c/DHZ9Mu0tVGTRNn7+m0Z52nL8jVb7J8pX4arNrwgjhjYNNA3LPWYbLjq0UmqUf0aqleH4KRDoFECC63F1Z+KbALA2JQESIAEohCgIhsFDjeRQDgCiIeEBQXZURHLBosXLEFGZi4qUk+8N09nCTbrXvh4gWovbob1xJKJuFnb6upO6LuKiOkj3u8TxV3xomPbBV7o7f0efmu2R4m1t5llKFRwiQ4neGl+Ttx258XIBPvimIXqT4lRhcUCL+tgtcN9ww93AFl31KCmYgVu7tmKLLL3ywt/JEGMbD1x5UT21zxxRfz8t/BJeqYt2KDeGLtEXy9cO1hBoVxgaAf3ayyu4cUJsXCcyTL+98TNO5wgbvGGs7t4NiHO8on353nWRfsBt8lExI5ZTmS/TGobnJ4JnjXuuUbyd4GM3fFKLCtbpH6QlAiW1Hsle7JtSYTyc5skdIIltU1eHXWHxJvHki6t6yl8XIGF0JY7Rk1X305aba8KLKfrfRgYYIyFbdu9V7SsM3DjWfzAG7P1s/PgPZoERgfXbiTMQybs0gqSr1FIgARIgARSQ4CKbGo4spcMIoBY0XheRG0klxzXPvBzrcREnjXst4hxc4GGCS7ghX3o6R09ypjbhW0FhHWhp2RD7S2fqsEwPXcX/XvGwg3qWYkbhMUZMYDP/buf+udjf0aM5Z0uMWX4JCqIBx3cN/gCafZ/TNx1Z4l1qrQC6/ezH80P203P9vU965EV9uuSOGLPBvkBd2tXnpfJCjc+1W1j/y5ykhMhs7CtbO0tma/tl+mNW7wuw3Zfmbq8l2S1hbsmEpDZ7MADf0v/ObOTOqB3Y7ku29TZw8erIyQJGdxD4RaKBGSwvGJiqVlJ/LfheJJk9jYxt1XFo6Ju7Wo6hraptEP254+ieCOg5BHuDbgYtyhJHIR+B3TJ1ZMf738XfnLEHDvR72gxo+l6HyZ6jqa9V601a0v/jYkpM88GZXbE67NUm6a1VceWdQOdI974h8nBCYMdkr0Ok2HuRGRgh5IFTK6ZsA2sWiaTHRQSIAESIIHUEKAimxqO7IUE4ibw1AfzU6rEwhp53L7N1GkHtdKZe6MN5BiJ/0LcXsvGtVS2KL6x5M+5hertr5eq7ycHkzo1blBDuz6i1NB/JINoKmMwEU/sZtj9emKBx4Ida8zJbq8nyootRpGx12EZEwAomWQLLL3RlBu7rVlGwh5bxonS7CpjtiJrW/3t/TJ5GdZ7Y0WHsorYbVsO7Z+nf0LZRR1WZLbuLm69XpumvUfx8on7twhdWbJmbhxlb5Ct+19PTlaPXd1HMlnXCPS1f+9GWqkOrEjBgkkKlYKuAl1U5H0YGEQ5Ljx8ZW/VOq+21BHerJbIB1mRH317ri6nZp6TmGhCbfBubevqbOyYQIilxOIU3h8+SCHWFoLs6GVxvXTn/IcESIAEMpCA93/9DATAUyaB8iTw6/S16qsYtSnbN6uj4KYajwsa6iwivq6hKFfxCBI9Hbdfs6hKLFybkVjoPcm0HK5WJVx3IUhU9MJ1e+iXO5QCMRaNeMYRrk1/iSW0FTe0gbL3jCRHKQ+Ba7ItGzaFd/296uQOutSOaQvLzIPijhjPS63ZJ5lvxE0+clVvtU4UtjWSmRiKW7hsuHght6VL67qStKuVdmtHvB9KBMGqGOvv0O4jXZfbCBMjtsJo1tnfqKOcikRBS+K0qMHqiyRPD1zeK5C0C0rwK18s1hMWmABC/PIGSQRnx/PCkvzQFb0CQ8c9OOzFGYHft53bVbWVZ4QRuMenUir6PkzlucTbF3IBYBKkqzzT8IFs2TpXhzPc+Ncu6qE3ZwfCFSbPSz5RE6z/FBIgARIggdQRoCKbOpbsKUMILJA4KWSehOKG2XXEf4aL3bpEyt7A+mNks2QHfiRG3Ue0RSwW4kph0ZkXI64PCi/qmLqCY6E8zqmDW3jGAEvRM2IRxjEiCY79wOuzI23WrsVmI5SHq07OV1DQUR4mWUGCqX+ckh+y+2tfLtFuoCEbymAF3EZtQZ1ZV2BRMxZAs80oJuZ3WX3jZRt1fBMVbYG0/g6x/yRxEfe7VK9WRWeCjfc8oMi++NlC3XyTuGnDLXTztl1qt9zIUIjteqUL5L4zFvA8qU2MUjpGVidQ/gWuvYjthjKEeqQ3PTdVezB8+EPkRGm4d23B/QhLoZFEY6vNfvF8p8N9GM84U90G9WnbWZMD8IwYI+XUMNlw/I0/hZ0wSvUY2B8JkAAJkEDiBKjIJs6Me6Qngb1lWJ3l85J8vG+CKR4vJtXfEnfbaLJn1wY6q6jdZpQkQDpIEgohs+o7UerKYh+4QN53WU819Ik/1YIVwZdYuz8swzpwjcTj3XVxD+3yinV4Cb/zxel6PyiyrsDaCgtdM3G3nC6JqX6UuK8LjmkXaAaL3UCpAYsXbxNTmyVKQ7a43h7Yp7FOxhRoLAszFm0olRKLvi49rl1YpWSSuDYbGSBZXZFkqixc8xAj3ELcrW1xjSewlF15Uge7ibasvfrlYs86/igfAq0k+ysyzBqB9R7xrCZrsVlvvmHFnLt0kzr2uh9DJp6evKaPJx4SLvPm7+yav3T0/M2vj2CpN8dxv+EyjnjcGXKvmQkvuPZDuYX7OuoII17aZKWu5UxM4Tzh6mvE/TvFOadKKvo+TNV54H5unFNT7ZCYeHgvxBIosrZ8Ob5YicW6cF4PdlsukwAJkAAJVBwBKrIVx55HTi0BZN8ZKZ+b5DNMPmWu0MoxwgpqBv77jM6eBB9Q9qBAvnTjAF3SZlD3htpial6Ww3UExel+KLNimV0YRZmdK8odSkPc8rcuChmTn3p/vjIlfapaL/o4BhRSWJL/9dQUrVDDKgU5dXBLncwGy0hMMlziX+OVj6JYl+Lp4/SDW6oh+zaP2vRoiYW8WurWrhJ3zeufnRKVR9SOImxEjUdXAbItNNAVrj+rsyfeEV199MMyhYymUKiggGRLLBwy5BaJgvJlDBfyCEOJuBqJpGCtwzWEVQ7LZqLB3gljQEIyWzC5gYkIuBbD6obsun6X9s2D7rU4lykyqdNZ3KjNdYQlE46cuI+M7NeroXrtqyXmZ+DbLTNlu+u625IpzTNJMmDbAmW0U6tgIiF7m7uMa4nkU5EE4zP3caQ28axPh/sw1jjvlGzPxlIeri1KntWpVU0hszyefe9+u1RnkA/X1l7nXtNEkrbZ/XCZBEiABEigfAlQkS1f3jxa2RPoKIcYKZ8KUWiRORjWUfvlGQk+Hnpjjs6Yal6KUVvymX/1Vdc/PTUqEbjujtCWWVFmJQFJJFkpLsNXPDwpZHPdkiQjZkNx4pKtCu1tmS11YTGmRAVu1p+Jgp6sIIusbQ0O18+h/Ztot2Mo2Hipf/iK3lLGZKqaMj/5WDX3OIg/daVfp2C9SFiww/G54qRQd2j0A1fQRBVZJO2yrXH4bQtqaJ58y88xLUTI5HvnBcGJCPdlHv0ay6Ddv9+W9xfvAFsmzFqnFVmzDkosSkDBHdwIJpDCKrJOvWW7fmm2KEa2uEqP2YZkUpj8gPs+3I8Rj4t5JLgs476HcmQUzkh9mL4S+W4iEyelzYSbLvdhrPO2SxrFalua7aUtgVaaY3NfEiABEiCB+AlQkY2fFVv6i0C5K7R44b37ku6eGFIge+vrJeJ6u0WdcmBQucB6xN0d0Cf4ko114QTKLCyz1z4x2RMrF66tu65+Xe8tnpPt/W3aPy7lbW5BEpkwCp1pY3+jzuZvM9apERL/tytYQtduEnMZiar+KYmqYglicG3LMrIa3yulTYaPnql+nBLMphyrn2jbUYLIFVj3kKEYbqCR6uq6+5jfyZRYQYbbWGLcHGEBPlwmAeASieuQiFQGJRYTRVDYbfl9ZqE67eBW9iodCwxFFla88cIp0qRLXfmbMoK29t+0mXwy2yNl6Ybre7RJGVjFL7x/gu4GVkNbsG2u1EqGYKLBjcMeOyFYFxkTOrA4wvIP749I47H7j7acTvdhtHFyGwmkkgAmDf9yUEtPlyskzwNio105cmBeiJcLciO4HjE929cLmfD8Tmo8w2uKQgIkUDYEgv97F/ffRb6OKJtDsVcSKFMC/SL0Dk1ppHxsC22EpsmvxovlXeKO26W1NxkPXIdfHLNI/f3E9iGZhT/4fpl6+5ul6vITvHGXSAiD8i7tm2cHBoSsxKhLebXEw7rW1EAjZwHusLAQ22LHFNrrYe298L4JqpcodMh621CUZ7iwGkG2TfynjZdmWJWmSPxstPqVZr9I393b1VM3n9NFVbOOERCwO3wAABo/SURBVKntDeJKfMf53T1leWpWr6ZuFcX7UUme9fHPKyLtGvf6cNZWKAznHNFalyuKxC3cAZBIKNzLULi2ia5D7N9hA/LU2Ye11jHOyFx87t2/pyQbb6Jjqcj2hw1oIn+fQYt1kSQ9m7UktG7xt/ISCTfsX6atjajwQVGFu7UR2xqLdbi3bUk283FWVvB+sj020Pcnv6zQZa6wjMkTW5H9feY6dddLM7Ep5ZJu92GsE/x56hoF75FIAut3jrjPY8KunnwjCR2FBMIRwISRO0GJOunhnt1HDGyq3Drjb45bKv8netNx9JCkem6fSwu2UJENdwG4jgRSRMD7lqvUhdIvPhQSqGwEOsoJjZTPTQ899ND2q666KmXnB3fCW//WVbVyyp7gAHAtPHqvpp5kMVj/zIfz1ZvjQmP1sG2tKIqIi73/0p46/hLrIHCrgzL7T1Fm44nhGnpaJx3viszGeJkvlDIfffJz9Ke4x/j+rSlulw3kxbCBWH+gQN4xanqplFjU/rz8hPa6L3sEsxcXqWUyI267gmI7Elpd/X+T1N3ism3HfkK5/Kck4smtX129/Pliu6uElmHVsicN7J1RDgj1I6G0Q4FHch5YNGGRhqBkj10qBevwIuRmnsX6VEgXiavEdTUCa/1ZotQ++9F8syojvvFiacsfswvDlj/CRNLYCQUKVsf18vcPxd9cQ7M/FEdbduzY7ZnEca2ntcWSg33wWVu0LRCv7SYHs/vEsu1OjIkiW+CWvHePhnqVW0cZid/MNnsfWJSgtMEyO1HOP1HLfLrdh/a5RVp+4dOFak4URTbSflxPAiRAAiRQOQlkVc7T4lmRQEQCHZ966qkN++yzjzQIWjwjto6x4WDJQny1uMe67odmNygafz/Ra3H9Y/a6iEqs2Q8v3VBmobh2bBlMCtOycW117yU91LWPT1YbREGNJibGE3Gx+LSQkMJuSZRvcY8B63Ay1li4XoPV4L7e2Eb0j2RY10mm2AuPaeceTv+GxRgJrZCEKl+SK9ly7pFtdZIlTA4kI67ibPdRS5R4fFB3NZxceEyeZzXcUt+KMEHhaRjmx6Nvz9FZmc2m/cQl9mQnyc80KeeCWNB+nYLxzCcd0Fx9IlZpu0SL6aOyfsNKiYRM+FuAZRZMogmSBMHCHo/g7/uT+/B8CC+v3zYwsOGNsYtlEmGB/v3xTyskkdpuyXZcXOMXSbfgNWDEtuS2lEzEthzaP0/hE05wjnfI+KMJak/Hq8im630Y7fy4jQRIgARIgATCEYAiO0M+Y8Jt5DoS8BEBmGj6xhgvAtRunzFjxtXyPfjN8ZNjNI+8GdaYC49tG/HlM9KesNTdL/Vd4xFYjv4t2YUfubKXuPvWCewC6+FdF3fXdWa3SB3MSIL9yyI5SiJ1NM3YoEDfcHZn7Q5r1pnvqQs2qBuemRLR9dO0g3UNpYagHLiuwMi6DAvVo2/PNc3j/h6yT/SMyadJVmW4qM5Z6nVpRJmi4/fz7guFcqVkVk5GkJgI9SuNNBZLWzhBPPPT1/YLuGVDkUN5lhvFJT1T5In35ulTrS7uulD0FkVJhFZeTDCxBHdDI4ittsWU18G61o4ia7dLZjneGs7pfB8mc97chwRIgARIILMJQJF9ruST2SR49n4ncKKcwDsRTkIrsLLt/ZLtUGSTEsTSnXpQC3XaQa3CWmGXFGyW5EBea4t9IMTl5OXWilvZgTJ6w7NTRZnt7Ymx7dqmnrbKRUt2hH1tKSjcqpDMwhaUMEGdRZQqiSR2SRO0gTtlvIKyNieIsne8lNcJFw/7p9SJvfG5aXG74sKqBYUNNTj36+VNlAWFFNZTnYCq2PM35jCR5An1RW0Z8fostb/0jQy3ECiK/zmzk7r8oYme5B6XDGmnj2f2RX1gJAApa0Fd4fclvtouyTKwW64aJJ+fJRY0kwTJr6aLldpvsqMkmxSsyvi7QZbcuuI1YUoHuecDl2hb4H5sxwgjU3I0Sff7MNrYuY0EyoIAJp6QRK22/J9h5PcInh3f/blal1Qz7YokD4JdosusnzJ/vfrJSUA4S0JmKCRAAmVHgK7FZceWPVc8AVeBLfWIrj2to0LcZDj5dlKBeuqD+erlmwaE26zXIfvu/Zf1UI+/O0999OPyiO3sDbC2QHl78O+9AsozXBqjKbHYf8t2byKK/4h11y7hU1fqir47bC+pu1j8GEACp2/lP+yfp3qVIZyPiU2FRdnO6GqP015GBlcosHt2zfVkHLbbIBEL4m2jWZXt9mYZSaeGj56h3S3Rvy1IhITJAiTHiaeExtmHt7Z3l/jXnerbiavVn3PWq35SjsgkAYIV/B+SPfmBN2br9sfv20wd4riCviOJu6LVBfYcqJQ/XpK4XcQ42i7tF4ti/esM77Ur5WEqze6PSFIwuPmvEav+OokXh/IIgdX7Wivm2D5hJJDC35ktiMtGzGouPmKRhztxMoJ7EYKazhB4eNwtXhbhYrXhRv0fcbu3BYnSDrDKD2GSKpz45T4MN3auI4GyJID/x+JNovb210sDydiijQn5HCbPmxatCbeRAAmkmAAV2RQDZXdpQSDlCqw5qwden63miovp6Ye00hYUsx5KzFMfzNPJV8w6fKO+I7IM9+mYE1gNS8o/TslXTRvWVM//rzi+LrAxwgIydULpGyb1QZHp2MTlRWhevDqGVRIvz0ZaiasjPlAMT7v9V7M64W9kdrxWEjCFS3xlOkNWX4w/XkXe7Gd/Q5m9feR0/fLfq0OQLdrgBR8Jme6L4cJ9oMTq2rGm2HecJAaC1RcfxLqeeWhQ0T1SFEckzcIEwqXiymsLrjOUy/ISWNtRH9YeXxspnbSHFTtbXmPxw3H+F0HhRFbqSIJsxbh37cmfSG0TXW8UWOyH++4eUWKbNvS6Ikfrs7EkfrMFf5e2+Ok+tMfNZRIgARIgARJIhECw5kAie7EtCaQnASiwJ8hnD/kYN+KUjnSbJPN5fewSXapm5qIinb0WCuyT788LmzUVCgesKWOkvIYrTXO9L6Pudvc3krmcNey3lGWobeG4QCMT7z2vzHQPm9BvWLxUlJw6v4nF8CKppVkaJdYMCMrqTeKWjERRrsyQaxNNYI2+9Lh2niYbRcF+/uPgxMJLny1SU8VVzBbUKX1Y3Lxtt05sR6Km8q7P+pbEY2JSAALX8AfEJTrehD96pwz/B9bVo/dqFpECvCdci33Exklu6J1fXz18Ra+oSiwsv/hbHbJPM5l4yZG4/Caqq9Q4tsWNW/fLfWifA5dJgARIgARIIFECtMgmSozt05XAZzKwd8trcDrx0ON/SjxsrZg14uDiOkIsuTCQHllSNgQuuslk2U2l62qnVt7svxNmFUr218JSIVwqlskrH5koNWK9CZlQAuhJUfjH/BJabL40B4Tl9PpnpqoHLu8ZcMt8Wo7z/nfLInaL+ri3ndtN3Eq9EwkjP1noKWu0Xay+t4nV9/Gr+0RNmoVjVYQCiRivUVKOpLlMSIz6dIEq2ux1JY8IgBs0gSMH5mmXXhvHz9PWSKxxcWw01h8o1v3//bhCob5kKqWH1FFGvcn+4oLvytcTC/RxzXpkPz5x/xYRXfThJo37zhY/3If2eLlMAiRAAiRAAskQoEU2GWrcJx0JbCzvQcECN3dZMMtsrOM/KPGVX/1eXMZl1JiFSZWwiXUMe7trNXSTLfW13J2xH6yl4QQxp0ZMzKj5He4bCtX1z05RH0pCIsjPU9eoC+6bkHIl1hzbWL3h8o16qm9JPFMkQQWWa8T12Xb1Rlsk5PigZLz2vqjXe8t/I8c8LVixSVvj7X2SXYarecsmtQIf1AeNJe98u0ziredSiY0FytkObwjEFNuyfM0WdeeoGTqO1qyHVfbGv3YOUXjN9kS/4fKL8lmw6odTYuEF8GRJRmbTN8oqfT95tfkZ8v2LxJoj6ZUr6XwfumPlbxIgARIgARJIhgAtsslQ4z4kkAQB8dxV9746U1t3PpUyLWUtdesEszHiWMh0agQv8niptmWylH95f/ggbV1EHO7U+Ruk9qZ3PyjDqEO5cUt06x8SaTz6zlz1piiViB8ta4HCeckDf0Q9DMZ9vZQAsi1u2AFumLe9MC2QeMfupKro8HuVZC+215vlthKXet5RbdSrXy6OycTsE+kb8c+U8iHwrzM6BZKcmSMioQsmp3At7drPSBKF5ErXPjE5rgRipj/3Gxm1UQ/Wvg9NG7j1YxIG5Xvs2HWzHeWf9u/d2PwMfE8SS3G0WPB0vA8Dg+cCCZAACZAACZSSQPDNtpQdcXcSIIHYBPBimWym09i9e1vUr1PdsyInO/gbdUerQEstEdRy3U9elJHBGMmS8Jkm6z77dWWIS2N96SeWImv6LQ8l1hwr2rdOfiMZp5FYxxaUULj5+WlhyyF1kNJEsN52kVJH0QRxs3AZHy3Jnj76YXmplJ1ox4FLNKX0BM49so3qk5/j6WjGwg3qgx+KPQhQ2mj/3o1Ub6tND5n0ue6szuo+iSGHy3kygr81xIf/W5Rouw4yMg7f+8os9cfsYvdlTLjYki3x3JMki/YvUlppw6btkhl7u3hzbFXIZoxSTPFIutyH8YyVbUiABEiABEggXgJUZOMlxXYk4DMCruWnuihCSHAz9PSOal+rBitieF/5YpG68ewunjPs1raewscWxOPtslOu2htTsezoalWiZY6K43hQXFHvda8ewbhHsxvOA+UXZjp1/lBbF/GL+/Vq6FH2zX7hvlGS5YoTO6gTpF7uSHEb/3HyGoXEYNEkUs3QSPvUcyYmIrWzJygitcnU9fhbOGVwS8/po+TSPaJIYpIJAs8JWDmfGdrXY7UdLFmum4i79y1ivV+/0VujuXjP4L/tpDYxLPW2QHlG+a6Pf1quPR2QMRv1KR+U+HnEOxtx71tMSCE2HiW4yk1SfB+W27h5IBIgARIggYwiQEU2oy43TzaTCNwqsZ2I8YPA+AqXxSev6RNIimRYQImdsbBIK3Supcq0Md+II0VMalmJG4Nbo7rzRp3ggVvn1fZYv8zuUDJhXTO1eOvVzhLlvqEa3LeJtM+JqMC+/fUS9YZkrb7shA7SNtTVE2WHbvprF12P9veZhbr/nyRGGK7PrtSVY9qCWqd2UiH0f84RQWWovuUabu/nLiMBGcVLALfBVVLy6pgwWYqfkJhUxKHaskLK7iCm/QaZ3DH3ELbDMvt/V/XWpZ/CxcfDmgq3ZGQWdicU0A/KW+GDZG/weMA1t5VYHMNVZHOyvX8naFPWkur7EONtL8r93j0bqnVyL6yVLNvIEo6JMUwcRBJYo21BH1klzzR7vbuM510Nie1HCSVMMuVJuaLpYnX/dfo6t2mZ/sbEYaITVmU6IHZOAiRAApWMQPn/D1nJAPJ0SCBdCcyXRESw+qBkx6BuuSFZejFuKGajJcEMXiaHSgxg51Z11amDW6j9xbUYL2GuwJqFeqrI1Is42lQrtYgjtMX9bW+LZ1nXfH3wD3XL37oqWMkgRWL9ekzid6FYXHRsO9VFSpn0aF8vpKSO3f9CYfn4e3PFnbPY/XP46Bnqu0kF6sqT8vWLst0WyzWrV1N7ixUYH8Q/ohzQF7+tVO9/vzzQtIG8YNsCt9FFK4MK1ZZtXouuq+Dg8jz/7z0U4pbhOrpq3VatPO0jyoIt5V0WyD52eS/bf7JmubNc33+cnK/w7cpIyfYcydX/64mrVf3sueoq2dcWlK164pq+6hOJcx/5yQKpLVw8sdOtTV2Jwe6imjeKPZFQWxQseDu8fPMA9Zska/peLPj4XiNK3qzFG3WCtHAKEBTlBlKOJ1f+dvD3g3AB/G5Qt4aOXUdd6lRkNnfvO/e3zSPe5Xbi6XDeUW3jbR623X/O7Bx2fTwrMWEXSZG1oix0V+7vePpHG5RIGtQ9V61cs1Wt3rBNtcmr41Fk4f1CIQESIAESSB0BKrKpY8meSEBbAGwMtWsGM/7a6+3lGllehdHOEmy3i7V87N7NVNumtVVreXmCJbJJgxohViHTx46duyTb7byQeq5wsx0u7rZN5YX4pANaqKNEacVLty2wJJ51WGu9/WWJC0Vd3VSJyytZFvZ4oBxeJ7V8HxVLGl5Qr39mihogVrFLj2tvNwu7jDqtL32+WL0jSrv7EgpFZ6LELkLRQUxlJIFlrqvE2SLG0Rb33FzF5XNRfFHvtmrJW7VrNcQ78aS5hboWajTlKZPiI2taEyGI5b7ypA4K94VtVTXX4M1xS9TLcm2jyYcS84wJBFcBwyQP+j1IrOZmguOhK3rrSQW7P7ivj/ujQK0UC28XUXQxsWQLLJ/79GykP1gPSy1qwm4Vj4Ht8sGTAX8Xr94yQCuubiZyuy+4SEORTYWUxX2YinGVVR+udwQ8NJIRWIHdZHJ2P0sLyj7xnX08LpMACZBAZSeQ3NO6slPh+ZFAkgRcN0D3BSlct9nOS1M8+4Trp69YXlH3MpZ8K5bE5z5aEFJ70t4PrpVPvj9PlLhF6pzDW6tjxdLgvkRDwW2eYjdW9wUSykgqBFaqK6S+LZRRxDcuFOW2r8QshoudxfGg6H85fpX678cLtJUs0hjWiYvkHaOma+vaaQe11BbYcEoT+kE2XFuQKbmNZD02ghJAtqDvF6S2bTR5ccwidfAeTVQkixmSAhn36Wj9VIZtUApdL4LjJGY5nLwxdrFkCY5P6Xvli8U6Lvz8o9uGTAzBGr5NSt/g7+s7KZFj33+YBEEisUmSDdwIJppQExbXzJ0gQhusg3t6MvKulGJKhTUWxy6L+3BHkkmykmERbh93Ispu01DCLmzJdX7b26Itw7p/4TFtQ56VZp8JJQm9zG9+kwAJkAAJlI4AFdnS8ePeJOAhUN9xF3XdQT2NS340cJQ11+U03D7h1t0l7q6w4hzaPy9k8055iUSsJqxQU6SsTrwC1+HHJYbwPYmNvVjccGE9MrJWXOeek5IhqRT33N3fpTmWHacKV+q7X56prbRtS1yO0TeUD7yMwm26QCxj8QriHW8bOV1nRYZr9qED8pSJM0TpFFeJRb8r120Lmy053mOiHRQX9H+YHM8VjAku1PZ5u20q0++cuqH/nWGSATGrpqQN7g/EpY6RbNyJyGtfLdETP8g4DLdxyLxlG9WwF2foSRH8fkhiauGaD+s47jdXiUUbZBl+WI7/9Ifz1SGizGKCKL9FNjaVWj79JXUlvdz7zv2dzGC/l8RWd700Q22UOtNFcp/BxR8W6GgxsskcB/vAiQGTAogrR5I0PIe/k/skkuSKe7YtcN1ORnA+8ABp39x7TXGfYmLs+Y/nJ9Mt9yEBEiABEohAIPR//ggNuZoESCA2ASgNSGBiSqXALRQKTbQMtnjJsZWpeJTfcCOBq+kDkgEVsaAdW9bV1sdporT+MGWN+mL8ylIpNEtWbVG3vjBdSpLU1y65neSFHQpukbyUplJWSpxnE0nMYgSutWUlm+Sl82ZJiPXY1b1lAmC3eu/bpQqupPGWFgo3Lrj/PvTmHDXy04XqJLG8DejaQP3fO3PCNU3ZOtQkhqK2RiYWcJ0whllLivRyyg7ig46Q2McVKBWXSn3hm6QObDuxfmOyYfK8oIXUbR/t9zfiSg4X4ZvP6ap+kXjWJ+Xv376v8XczTCaTHr6ilxol19+2xLr9QuH56Mfl+oOazi3Es6GlxN5CCUayLiiO5hkCQ+ZuubnlS8dbQ/HbJf/AwgmFGd+w3uPap0rK4j7E82nshIJUDTGl/YyTcUGxNuJmMjfr4/nGpEezhjX1JFOBTFYhdh0eIBQSIAESIIHUE0AIDoUEMoqAJN8ZKyc8GMmN7CyxFQUB1gPbJRJxdXjpS1bwEtWxZbauS5lqRdOMCZan0rzsmX7S4bu+ZIXdJEpIRbs+pgOL8hoDsmOPuLynvv9wH6ZKkFzLngiCWzW8CnCPQTHEhEVZCxTRJYyFLGvM7D/DCeD5gedIuvw/nuGXI+rpm2sljQ6SnBHjojbmRhJIkAAtsgkCY3MSSDUBWFhSqUQtl4yZ+JSlVBYlFoxi1QQtS47sO7UEIsUD4x4rDyUWZ0MlNrXXlL2RAAmQAAmQQCQCsVOqRtqT60mABEiABEiABEiABEiABEiABEigAghQka0A6DwkCZAACZAACZAACZAACZAACZBA8gSoyCbPjnuSAAmQAAmQAAmQAAmQAAmQAAlUAAEqshUAnYckARIgARIgARIgARIgARIgARJIngAV2eTZcU8SIAESIAESIAESIAESIAESIIEKIEBFtgKg85AkQAIkQAIkQAIkQAIkQAIkQALJE2D5neTZcU+fE+jTMcfnZ8Dhk4A/Cdj3HmpBUkiABEggGQL2sySZ/bkPCZCAvwlImXgKCWQWgd27d4+VMx6cWWfNsyUBEiABEiABEiCBCiNwUJUqVcZV2NF54EpJgK7FlfKy8qRIgARIgARIgARIgARIgARIoPISoCJbea8tz4wESIAESIAESIAESIAESIAEKiUBKrKV8rLypEiABEiABEiABEiABEiABEig8hKgIlt5ry3PjARIgARIgARIgARIgARIgAQqJQFmLa6Ul5UnFYPA1zG2czMJkAAJkAAJkAAJkAAJkAAJkAAJkAAJkAAJkAAJkAAJkAAJkAAJkAAJkAAJkAAJkAAJkAAJkAAJkAAJkAAJkAAJkAAJkAAJkAAJkAAJkAAJkAAJkAAJkAAJkAAJkAAJkAAJkAAJkAAJkAAJkAAJkAAJkAAJkAAJkAAJkAAJkAAJkAAJkAAJkAAJkAAJkAAJkAAJkAAJkAAJkAAJkAAJkAAJkAAJkAAJkAAJkAAJkAAJkAAJkAAJkAAJkAAJkAAJkAAJkAAJkAAJkAAJkAAJkAAJkAAJkAAJkAAJkAAJkAAJkAAJkAAJkAAJkAAJkAAJkAAJkAAJkAAJkAAJkAAJkAAJkAAJkAAJkAAJkAAJkAAJkAAJkAAJkAAJkAAJkAAJkAAJkAAJkAAJkAAJkAAJpJ7A/wMPUbG7mLmpbgAAAABJRU5ErkJggg==;" vertex="1" parent="1">
          <mxGeometry x="440.8" y="-700" width="307.2" height="63" as="geometry" />
        </mxCell>
        <mxCell id="LH5yYJ9O6cOlUZl3kjkf-29" style="edgeStyle=orthogonalEdgeStyle;rounded=0;orthogonalLoop=1;jettySize=auto;html=1;exitX=0.5;exitY=1;exitDx=0;exitDy=0;exitPerimeter=0;fillColor=#008a00;strokeColor=#005700;strokeWidth=2;" edge="1" parent="1" source="LH5yYJ9O6cOlUZl3kjkf-30" target="LH5yYJ9O6cOlUZl3kjkf-24">
          <mxGeometry relative="1" as="geometry" />
        </mxCell>
        <mxCell id="LH5yYJ9O6cOlUZl3kjkf-30" value="" style="sketch=0;points=[[0,0,0],[0.25,0,0],[0.5,0,0],[0.75,0,0],[1,0,0],[0,1,0],[0.25,1,0],[0.5,1,0],[0.75,1,0],[1,1,0],[0,0.25,0],[0,0.5,0],[0,0.75,0],[1,0.25,0],[1,0.5,0],[1,0.75,0]];outlineConnect=0;fontColor=#232F3E;fillColor=#ED7100;strokeColor=#ffffff;dashed=0;verticalLabelPosition=bottom;verticalAlign=top;align=center;html=1;fontSize=12;fontStyle=0;aspect=fixed;shape=mxgraph.aws4.resourceIcon;resIcon=mxgraph.aws4.lambda;" vertex="1" parent="1">
          <mxGeometry x="280" y="-715" width="78" height="78" as="geometry" />
        </mxCell>
        <mxCell id="LH5yYJ9O6cOlUZl3kjkf-31" value="&lt;font style=&quot;font-size: 18px;&quot;&gt;人工审核过的分类库&lt;/font&gt;" style="text;html=1;align=center;verticalAlign=middle;resizable=0;points=[];autosize=1;strokeColor=none;fillColor=none;" vertex="1" parent="1">
          <mxGeometry x="499.4" y="-750" width="190" height="40" as="geometry" />
        </mxCell>
        <mxCell id="LH5yYJ9O6cOlUZl3kjkf-32" style="edgeStyle=orthogonalEdgeStyle;rounded=0;orthogonalLoop=1;jettySize=auto;html=1;exitX=0;exitY=0.5;exitDx=0;exitDy=0;fillColor=#008a00;strokeColor=#005700;strokeWidth=2;" edge="1" parent="1" source="LH5yYJ9O6cOlUZl3kjkf-33">
          <mxGeometry relative="1" as="geometry">
            <mxPoint x="360" y="-690" as="targetPoint" />
          </mxGeometry>
        </mxCell>
        <mxCell id="LH5yYJ9O6cOlUZl3kjkf-33" value="" style="rounded=0;whiteSpace=wrap;html=1;fillColor=none;dashed=1;" vertex="1" parent="1">
          <mxGeometry x="429.79999999999995" y="-750" width="346" height="120" as="geometry" />
        </mxCell>
        <mxCell id="LH5yYJ9O6cOlUZl3kjkf-34" value="" style="sketch=0;points=[[0,0,0],[0.25,0,0],[0.5,0,0],[0.75,0,0],[1,0,0],[0,1,0],[0.25,1,0],[0.5,1,0],[0.75,1,0],[1,1,0],[0,0.25,0],[0,0.5,0],[0,0.75,0],[1,0.25,0],[1,0.5,0],[1,0.75,0]];outlineConnect=0;fontColor=#232F3E;fillColor=#C925D1;strokeColor=#ffffff;dashed=0;verticalLabelPosition=bottom;verticalAlign=top;align=center;html=1;fontSize=12;fontStyle=0;aspect=fixed;shape=mxgraph.aws4.resourceIcon;resIcon=mxgraph.aws4.dynamodb;" vertex="1" parent="1">
          <mxGeometry x="730" y="-700" width="78" height="78" as="geometry" />
        </mxCell>
        <mxCell id="LH5yYJ9O6cOlUZl3kjkf-35" value="" style="sketch=0;points=[[0,0,0],[0.25,0,0],[0.5,0,0],[0.75,0,0],[1,0,0],[0,1,0],[0.25,1,0],[0.5,1,0],[0.75,1,0],[1,1,0],[0,0.25,0],[0,0.5,0],[0,0.75,0],[1,0.25,0],[1,0.5,0],[1,0.75,0]];outlineConnect=0;fontColor=#232F3E;fillColor=#C925D1;strokeColor=#ffffff;dashed=0;verticalLabelPosition=bottom;verticalAlign=top;align=center;html=1;fontSize=12;fontStyle=0;aspect=fixed;shape=mxgraph.aws4.resourceIcon;resIcon=mxgraph.aws4.redshift;" vertex="1" parent="1">
          <mxGeometry x="401" y="-250" width="78" height="78" as="geometry" />
        </mxCell>
        <mxCell id="LH5yYJ9O6cOlUZl3kjkf-36" value="" style="sketch=0;points=[[0,0,0],[0.25,0,0],[0.5,0,0],[0.75,0,0],[1,0,0],[0,1,0],[0.25,1,0],[0.5,1,0],[0.75,1,0],[1,1,0],[0,0.25,0],[0,0.5,0],[0,0.75,0],[1,0.25,0],[1,0.5,0],[1,0.75,0]];outlineConnect=0;fontColor=#232F3E;fillColor=#8C4FFF;strokeColor=#ffffff;dashed=0;verticalLabelPosition=bottom;verticalAlign=top;align=center;html=1;fontSize=12;fontStyle=0;aspect=fixed;shape=mxgraph.aws4.resourceIcon;resIcon=mxgraph.aws4.quicksight;" vertex="1" parent="1">
          <mxGeometry x="532" y="-250" width="78" height="78" as="geometry" />
        </mxCell>
        <mxCell id="LH5yYJ9O6cOlUZl3kjkf-37" style="edgeStyle=orthogonalEdgeStyle;rounded=0;orthogonalLoop=1;jettySize=auto;html=1;exitX=1;exitY=0.5;exitDx=0;exitDy=0;exitPerimeter=0;entryX=0;entryY=0.5;entryDx=0;entryDy=0;entryPerimeter=0;dashed=1;strokeWidth=2;" edge="1" parent="1" source="LH5yYJ9O6cOlUZl3kjkf-35" target="LH5yYJ9O6cOlUZl3kjkf-36">
          <mxGeometry relative="1" as="geometry" />
        </mxCell>
        <mxCell id="LH5yYJ9O6cOlUZl3kjkf-38" style="edgeStyle=orthogonalEdgeStyle;rounded=0;orthogonalLoop=1;jettySize=auto;html=1;exitX=0.5;exitY=1;exitDx=0;exitDy=0;exitPerimeter=0;entryX=0;entryY=0.5;entryDx=0;entryDy=0;entryPerimeter=0;dashed=1;strokeWidth=2;" edge="1" parent="1" source="LH5yYJ9O6cOlUZl3kjkf-10" target="LH5yYJ9O6cOlUZl3kjkf-35">
          <mxGeometry relative="1" as="geometry" />
        </mxCell>
        <mxCell id="LH5yYJ9O6cOlUZl3kjkf-39" style="edgeStyle=orthogonalEdgeStyle;rounded=0;orthogonalLoop=1;jettySize=auto;html=1;exitX=0.5;exitY=1;exitDx=0;exitDy=0;exitPerimeter=0;entryX=0.5;entryY=0;entryDx=0;entryDy=0;entryPerimeter=0;dashed=1;strokeWidth=2;" edge="1" parent="1" source="LH5yYJ9O6cOlUZl3kjkf-11" target="LH5yYJ9O6cOlUZl3kjkf-35">
          <mxGeometry relative="1" as="geometry" />
        </mxCell>
        <mxCell id="LH5yYJ9O6cOlUZl3kjkf-40" style="edgeStyle=orthogonalEdgeStyle;rounded=0;orthogonalLoop=1;jettySize=auto;html=1;exitX=0.5;exitY=1;exitDx=0;exitDy=0;exitPerimeter=0;entryX=0.5;entryY=0;entryDx=0;entryDy=0;entryPerimeter=0;dashed=1;strokeWidth=2;" edge="1" parent="1" source="LH5yYJ9O6cOlUZl3kjkf-22" target="LH5yYJ9O6cOlUZl3kjkf-35">
          <mxGeometry relative="1" as="geometry">
            <Array as="points">
              <mxPoint x="949" y="-270" />
              <mxPoint x="440" y="-270" />
            </Array>
          </mxGeometry>
        </mxCell>
        <mxCell id="LH5yYJ9O6cOlUZl3kjkf-41" value="DynamoDB" style="text;html=1;align=center;verticalAlign=middle;resizable=0;points=[];autosize=1;strokeColor=none;fillColor=none;" vertex="1" parent="1">
          <mxGeometry x="728" y="-622" width="80" height="30" as="geometry" />
        </mxCell>
        <mxCell id="LH5yYJ9O6cOlUZl3kjkf-42" value="DynamoDB(分类数据)" style="text;html=1;align=center;verticalAlign=middle;resizable=0;points=[];autosize=1;strokeColor=none;fillColor=none;" vertex="1" parent="1">
          <mxGeometry x="359.4" y="-330" width="140" height="30" as="geometry" />
        </mxCell>
        <mxCell id="LH5yYJ9O6cOlUZl3kjkf-43" value="DynamoDB(洞察数据)" style="text;html=1;align=center;verticalAlign=middle;resizable=0;points=[];autosize=1;strokeColor=none;fillColor=none;" vertex="1" parent="1">
          <mxGeometry x="890" y="-428" width="140" height="30" as="geometry" />
        </mxCell>
        <mxCell id="LH5yYJ9O6cOlUZl3kjkf-44" value="" style="sketch=0;outlineConnect=0;fontColor=#232F3E;gradientColor=none;fillColor=#232F3D;strokeColor=none;dashed=0;verticalLabelPosition=bottom;verticalAlign=top;align=center;html=1;fontSize=12;fontStyle=0;aspect=fixed;pointerEvents=1;shape=mxgraph.aws4.authenticated_user;" vertex="1" parent="1">
          <mxGeometry x="551" y="-392" width="59" height="59" as="geometry" />
        </mxCell>
        <mxCell id="LH5yYJ9O6cOlUZl3kjkf-45" value="OpenSearch" style="text;html=1;align=center;verticalAlign=middle;resizable=0;points=[];autosize=1;strokeColor=none;fillColor=none;" vertex="1" parent="1">
          <mxGeometry x="268" y="-540" width="90" height="30" as="geometry" />
        </mxCell>
        <mxCell id="LH5yYJ9O6cOlUZl3kjkf-46" value="Lambda" style="text;html=1;align=center;verticalAlign=middle;resizable=0;points=[];autosize=1;strokeColor=none;fillColor=none;" vertex="1" parent="1">
          <mxGeometry x="640" y="-329" width="70" height="30" as="geometry" />
        </mxCell>
        <mxCell id="LH5yYJ9O6cOlUZl3kjkf-47" value="Lambda" style="text;html=1;align=center;verticalAlign=middle;resizable=0;points=[];autosize=1;strokeColor=none;fillColor=none;" vertex="1" parent="1">
          <mxGeometry x="749" y="-322" width="70" height="30" as="geometry" />
        </mxCell>
        <mxCell id="LH5yYJ9O6cOlUZl3kjkf-48" style="edgeStyle=orthogonalEdgeStyle;rounded=0;orthogonalLoop=1;jettySize=auto;html=1;fillColor=#008a00;strokeColor=#005700;strokeWidth=2;" edge="1" parent="1" source="LH5yYJ9O6cOlUZl3kjkf-49" target="LH5yYJ9O6cOlUZl3kjkf-24">
          <mxGeometry relative="1" as="geometry">
            <Array as="points">
              <mxPoint x="220" y="-677" />
              <mxPoint x="220" y="-571" />
            </Array>
          </mxGeometry>
        </mxCell>
        <mxCell id="LH5yYJ9O6cOlUZl3kjkf-49" value="" style="verticalLabelPosition=bottom;aspect=fixed;html=1;shape=mxgraph.salesforce.web2;" vertex="1" parent="1">
          <mxGeometry x="106.5" y="-715" width="75" height="75" as="geometry" />
        </mxCell>
        <mxCell id="LH5yYJ9O6cOlUZl3kjkf-50" value="S3(知识库数据)" style="text;html=1;align=center;verticalAlign=middle;resizable=0;points=[];autosize=1;strokeColor=none;fillColor=none;" vertex="1" parent="1">
          <mxGeometry x="75" y="-540" width="110" height="30" as="geometry" />
        </mxCell>
        <mxCell id="LH5yYJ9O6cOlUZl3kjkf-51" value="S3(原始评论数据)" style="text;html=1;align=center;verticalAlign=middle;resizable=0;points=[];autosize=1;strokeColor=none;fillColor=none;rotation=0;" vertex="1" parent="1">
          <mxGeometry x="84" y="-422" width="120" height="30" as="geometry" />
        </mxCell>
        <mxCell id="LH5yYJ9O6cOlUZl3kjkf-52" value="Lambda" style="text;html=1;align=center;verticalAlign=middle;resizable=0;points=[];autosize=1;strokeColor=none;fillColor=none;" vertex="1" parent="1">
          <mxGeometry x="264" y="-330" width="70" height="30" as="geometry" />
        </mxCell>
        <mxCell id="LH5yYJ9O6cOlUZl3kjkf-53" value="Bedrock" style="text;html=1;align=center;verticalAlign=middle;resizable=0;points=[];autosize=1;strokeColor=none;fillColor=none;" vertex="1" parent="1">
          <mxGeometry x="470" y="-450" width="70" height="30" as="geometry" />
        </mxCell>
        <mxCell id="LH5yYJ9O6cOlUZl3kjkf-54" value="Lambda" style="text;html=1;align=center;verticalAlign=middle;resizable=0;points=[];autosize=1;strokeColor=none;fillColor=none;" vertex="1" parent="1">
          <mxGeometry x="288" y="-740" width="70" height="30" as="geometry" />
        </mxCell>
        <mxCell id="LH5yYJ9O6cOlUZl3kjkf-55" value="WEB" style="text;html=1;align=center;verticalAlign=middle;resizable=0;points=[];autosize=1;strokeColor=none;fillColor=none;" vertex="1" parent="1">
          <mxGeometry x="114" y="-745" width="50" height="30" as="geometry" />
        </mxCell>
        <mxCell id="LH5yYJ9O6cOlUZl3kjkf-56" value="Redshift" style="text;html=1;align=center;verticalAlign=middle;resizable=0;points=[];autosize=1;strokeColor=none;fillColor=none;" vertex="1" parent="1">
          <mxGeometry x="405" y="-180" width="70" height="30" as="geometry" />
        </mxCell>
        <mxCell id="LH5yYJ9O6cOlUZl3kjkf-57" value="QuickSight" style="text;html=1;align=center;verticalAlign=middle;resizable=0;points=[];autosize=1;strokeColor=none;fillColor=none;" vertex="1" parent="1">
          <mxGeometry x="531" y="-181" width="80" height="30" as="geometry" />
        </mxCell>
        <mxCell id="LH5yYJ9O6cOlUZl3kjkf-58" value="2" style="whiteSpace=wrap;html=1;aspect=fixed;rotation=0;gradientColor=#223548;strokeColor=none;gradientDirection=east;fillColor=#5b738b;rounded=0;pointerEvents=0;fontFamily=Helvetica;fontSize=16;fontColor=#FFFFFF;spacingTop=4;spacingBottom=4;spacingLeft=4;spacingRight=4;fontStyle=1;shape=ellipse;perimeter=ellipsePerimeter;points=[];" vertex="1" parent="1">
          <mxGeometry x="284" y="-458" width="30" height="30" as="geometry" />
        </mxCell>
        <mxCell id="LH5yYJ9O6cOlUZl3kjkf-59" value="3" style="ellipse;whiteSpace=wrap;html=1;aspect=fixed;rotation=0;gradientColor=#223548;strokeColor=none;gradientDirection=east;fillColor=#5b738b;rounded=0;pointerEvents=0;fontFamily=Helvetica;fontSize=16;fontColor=#FFFFFF;spacingTop=4;spacingBottom=4;spacingLeft=4;spacingRight=4;points=[];fontStyle=1" vertex="1" parent="1">
          <mxGeometry x="350" y="-380" width="30" height="30" as="geometry" />
        </mxCell>
        <mxCell id="LH5yYJ9O6cOlUZl3kjkf-60" value="4" style="ellipse;whiteSpace=wrap;html=1;aspect=fixed;rotation=0;gradientColor=#223548;strokeColor=none;gradientDirection=east;fillColor=#5b738b;rounded=0;pointerEvents=0;fontFamily=Helvetica;fontSize=16;fontColor=#FFFFFF;spacingTop=4;spacingBottom=4;spacingLeft=4;spacingRight=4;points=[];fontStyle=1" vertex="1" parent="1">
          <mxGeometry x="521" y="-380" width="30" height="30" as="geometry" />
        </mxCell>
        <mxCell id="LH5yYJ9O6cOlUZl3kjkf-61" style="edgeStyle=orthogonalEdgeStyle;rounded=0;orthogonalLoop=1;jettySize=auto;html=1;exitX=0;exitY=0.5;exitDx=0;exitDy=0;exitPerimeter=0;entryX=1;entryY=0.5;entryDx=0;entryDy=0;entryPerimeter=0;fillColor=#0050ef;strokeColor=#001DBC;strokeWidth=2;" edge="1" parent="1" source="LH5yYJ9O6cOlUZl3kjkf-13" target="LH5yYJ9O6cOlUZl3kjkf-10">
          <mxGeometry relative="1" as="geometry" />
        </mxCell>
        <mxCell id="LH5yYJ9O6cOlUZl3kjkf-62" value="1" style="ellipse;whiteSpace=wrap;html=1;aspect=fixed;rotation=0;gradientColor=#223548;strokeColor=none;gradientDirection=east;fillColor=#5b738b;rounded=0;pointerEvents=0;fontFamily=Helvetica;fontSize=16;fontColor=#FFFFFF;spacingTop=4;spacingBottom=4;spacingLeft=4;spacingRight=4;points=[];fontStyle=1" vertex="1" parent="1">
          <mxGeometry x="204" y="-377.5" width="30" height="30" as="geometry" />
        </mxCell>
        <mxCell id="LH5yYJ9O6cOlUZl3kjkf-63" value="5" style="ellipse;whiteSpace=wrap;html=1;aspect=fixed;rotation=0;gradientColor=#223548;strokeColor=none;gradientDirection=east;fillColor=#5b738b;rounded=0;pointerEvents=0;fontFamily=Helvetica;fontSize=16;fontColor=#FFFFFF;spacingTop=4;spacingBottom=4;spacingLeft=4;spacingRight=4;points=[];fontStyle=1" vertex="1" parent="1">
          <mxGeometry x="531" y="-314" width="30" height="30" as="geometry" />
        </mxCell>
        <mxCell id="LH5yYJ9O6cOlUZl3kjkf-64" value="6" style="ellipse;whiteSpace=wrap;html=1;aspect=fixed;rotation=0;gradientColor=#223548;strokeColor=none;gradientDirection=east;fillColor=#5b738b;rounded=0;pointerEvents=0;fontFamily=Helvetica;fontSize=16;fontColor=#FFFFFF;spacingTop=4;spacingBottom=4;spacingLeft=4;spacingRight=4;points=[];fontStyle=1" vertex="1" parent="1">
          <mxGeometry x="664" y="-440" width="30" height="30" as="geometry" />
        </mxCell>
        <mxCell id="LH5yYJ9O6cOlUZl3kjkf-65" value="7" style="ellipse;whiteSpace=wrap;html=1;aspect=fixed;rotation=0;gradientColor=#223548;strokeColor=none;gradientDirection=east;fillColor=#5b738b;rounded=0;pointerEvents=0;fontFamily=Helvetica;fontSize=16;fontColor=#FFFFFF;spacingTop=4;spacingBottom=4;spacingLeft=4;spacingRight=4;points=[];fontStyle=1" vertex="1" parent="1">
          <mxGeometry x="794" y="-450" width="30" height="30" as="geometry" />
        </mxCell>
        <mxCell id="LH5yYJ9O6cOlUZl3kjkf-66" value="8" style="ellipse;whiteSpace=wrap;html=1;aspect=fixed;rotation=0;gradientColor=#223548;strokeColor=none;gradientDirection=east;fillColor=#5b738b;rounded=0;pointerEvents=0;fontFamily=Helvetica;fontSize=16;fontColor=#FFFFFF;spacingTop=4;spacingBottom=4;spacingLeft=4;spacingRight=4;points=[];fontStyle=1" vertex="1" parent="1">
          <mxGeometry x="850" y="-377.5" width="30" height="30" as="geometry" />
        </mxCell>
        <mxCell id="LH5yYJ9O6cOlUZl3kjkf-67" value="" style="edgeStyle=orthogonalEdgeStyle;rounded=0;orthogonalLoop=1;jettySize=auto;html=1;exitX=1;exitY=0.5;exitDx=0;exitDy=0;exitPerimeter=0;fillColor=#008a00;strokeColor=#005700;strokeWidth=2;" edge="1" parent="1" source="LH5yYJ9O6cOlUZl3kjkf-25" target="LH5yYJ9O6cOlUZl3kjkf-24">
          <mxGeometry relative="1" as="geometry">
            <mxPoint x="178" y="-571" as="sourcePoint" />
            <mxPoint x="200" y="-547" as="targetPoint" />
          </mxGeometry>
        </mxCell>
        <mxCell id="LH5yYJ9O6cOlUZl3kjkf-68" value="2" style="ellipse;whiteSpace=wrap;html=1;aspect=fixed;rotation=0;gradientColor=#0057D2;strokeColor=none;gradientDirection=east;fillColor=#2395FF;rounded=0;pointerEvents=0;fontFamily=Helvetica;fontSize=16;fontColor=#FFFFFF;spacingTop=4;spacingBottom=4;spacingLeft=4;spacingRight=4;points=[];fontStyle=1" vertex="1" parent="1">
          <mxGeometry x="204" y="-667" width="30" height="30" as="geometry" />
        </mxCell>
        <mxCell id="LH5yYJ9O6cOlUZl3kjkf-69" value="3" style="ellipse;whiteSpace=wrap;html=1;aspect=fixed;rotation=0;gradientColor=#0057D2;strokeColor=none;gradientDirection=east;fillColor=#2395FF;rounded=0;pointerEvents=0;fontFamily=Helvetica;fontSize=16;fontColor=#FFFFFF;spacingTop=4;spacingBottom=4;spacingLeft=4;spacingRight=4;points=[];fontStyle=1" vertex="1" parent="1">
          <mxGeometry x="440" y="-592" width="30" height="30" as="geometry" />
        </mxCell>
        <mxCell id="LH5yYJ9O6cOlUZl3kjkf-70" value="4" style="ellipse;whiteSpace=wrap;html=1;aspect=fixed;rotation=0;gradientColor=#0057D2;strokeColor=none;gradientDirection=east;fillColor=#2395FF;rounded=0;pointerEvents=0;fontFamily=Helvetica;fontSize=16;fontColor=#FFFFFF;spacingTop=4;spacingBottom=4;spacingLeft=4;spacingRight=4;points=[];fontStyle=1" vertex="1" parent="1">
          <mxGeometry x="384" y="-686" width="30" height="30" as="geometry" />
        </mxCell>
        <mxCell id="LH5yYJ9O6cOlUZl3kjkf-71" value="9" style="ellipse;whiteSpace=wrap;html=1;aspect=fixed;rotation=0;gradientColor=#223548;strokeColor=none;gradientDirection=east;fillColor=#5b738b;rounded=0;pointerEvents=0;fontFamily=Helvetica;fontSize=16;fontColor=#FFFFFF;spacingTop=4;spacingBottom=4;spacingLeft=4;spacingRight=4;points=[];fontStyle=1" vertex="1" parent="1">
          <mxGeometry x="204" y="-226" width="30" height="30" as="geometry" />
        </mxCell>
        <mxCell id="LH5yYJ9O6cOlUZl3kjkf-72" value="10" style="ellipse;whiteSpace=wrap;html=1;aspect=fixed;rotation=0;gradientColor=#223548;strokeColor=none;gradientDirection=east;fillColor=#5b738b;rounded=0;pointerEvents=0;fontFamily=Helvetica;fontSize=16;fontColor=#FFFFFF;spacingTop=4;spacingBottom=4;spacingLeft=4;spacingRight=4;points=[];fontStyle=1" vertex="1" parent="1">
          <mxGeometry x="410" y="-284" width="30" height="30" as="geometry" />
        </mxCell>
        <mxCell id="LH5yYJ9O6cOlUZl3kjkf-73" value="11" style="ellipse;whiteSpace=wrap;html=1;aspect=fixed;rotation=0;gradientColor=#223548;strokeColor=none;gradientDirection=east;fillColor=#5b738b;rounded=0;pointerEvents=0;fontFamily=Helvetica;fontSize=16;fontColor=#FFFFFF;spacingTop=4;spacingBottom=4;spacingLeft=4;spacingRight=4;points=[];fontStyle=1" vertex="1" parent="1">
          <mxGeometry x="490" y="-240" width="30" height="30" as="geometry" />
        </mxCell>
        <mxCell id="LH5yYJ9O6cOlUZl3kjkf-74" value="1" style="ellipse;whiteSpace=wrap;html=1;aspect=fixed;rotation=0;gradientColor=#0057D2;strokeColor=none;gradientDirection=east;fillColor=#2395FF;rounded=0;pointerEvents=0;fontFamily=Helvetica;fontSize=16;fontColor=#FFFFFF;spacingTop=4;spacingBottom=4;spacingLeft=4;spacingRight=4;points=[];fontStyle=1" vertex="1" parent="1">
          <mxGeometry x="185" y="-570" width="30" height="30" as="geometry" />
        </mxCell>
      </root>
    </mxGraphModel>
  </diagram>
</mxfile>
